<?xml version="1.0" encoding="utf-8"?>
<!-- Generator: Adobe Illustrator 19.1.0, SVG Export Plug-In . SVG Version: 6.00 Build 0)  -->
<svg version="1.1" id="Layer_1" xmlns="http://www.w3.org/2000/svg" xmlns:xlink="http://www.w3.org/1999/xlink" x="0px" y="0px"
	 viewBox="-174 369.1 48.2 50.3" style="enable-background:new -174 369.1 48.2 50.3;" xml:space="preserve">
<g>
	<path d="M-149.1,381.4c0.1,3.3,2.7,5.9,6,5.9c3.3,0,5.9-2.6,6-5.9H-149.1z"/>
</g>
<path d="M-137.2,378.2l0-3.3c-0.1-3.2-2.7-5.7-6-5.7c-3.2,0-5.8,2.5-6,5.7l0,3.3h-5.4v1.9h22.8v-1.9H-137.2z"/>
<path d="M-135.2,388.3l-15.1,0c-5.2,0-9.2,4.2-9.2,9.6v9h-4.2v-16.3h3.2c1.4,0,2.6-1.2,2.6-2.6v-12.9h-1.8v12.9
	c0,0.4-0.3,0.8-0.8,0.8h-3.3v-13.7h-1.8v13.7h-3.3c-0.4,0-0.8-0.3-0.8-0.8v-12.9h-1.8v12.9c0,1.4,1.2,2.6,2.6,2.6h3.2v16.3h-4.5
	c-2.5,0-3.8,1.8-3.8,3.6c0,1.8,1.3,3.6,3.8,3.6h4.5v5.3h2v-5.3h7.8l0.8-0.1c0.7-0.1,1.2-0.5,1.6-1c0.3-0.3,0.7-0.9,1-1.7l0,8h19.8
	l0-1.7c0.3,0.5,0.7,0.9,1.3,1.2c0.6,0.3,1.2,0.5,1.9,0.5c0.7,0,1.3-0.2,1.9-0.5c1.2-0.7,1.8-1.9,1.8-3.4v-17.3
	C-125.8,393.3-129.3,388.3-135.2,388.3z M-148.8,405h-1.8l0-7.4h-3.5v12.5c0,0.7-0.2,1.2-0.6,1.6c-0.3,0.3-0.8,0.5-1.2,0.5l-7.8,0
	v-3.5h6V398c0-4.4,3.2-7.8,7.4-7.8h1.5C-148.8,390.2-148.8,405-148.8,405z M-139.4,395.2h-6.4v-5.1l6.4,0V395.2z M-127.6,415.5
	c0,1.1-0.5,1.6-0.9,1.9c-0.6,0.3-1.4,0.3-2,0c-0.4-0.2-0.9-0.8-0.9-1.9v-17.8h-3.1l0,7.4h-1.8v-14.8h1.1c4.8,0,7.6,4,7.6,7.9
	L-127.6,415.5L-127.6,415.5z"/>
</svg>
