<?xml version="1.0" encoding="utf-8"?>
<!-- Generator: Adobe Illustrator 23.1.0, SVG Export Plug-In . SVG Version: 6.00 Build 0)  -->
<svg version="1.1" id="Layer_1" xmlns="http://www.w3.org/2000/svg" xmlns:xlink="http://www.w3.org/1999/xlink" x="0px" y="0px"
	 viewBox="0 0 50 52.6" style="enable-background:new 0 0 50 52.6;" xml:space="preserve">
<g>
	<g>
		<path d="M25,29.6c1.3,0,2.5-0.4,3.7-1c-1.4,1.3-2.9,2.6-3.8,3.3c-1-0.8-2.8-2.3-4.2-3.7C22,29,23.4,29.6,25,29.6z"/>
	</g>
	<g>
		<path d="M36,18.7c-0.3,1.2-1.2,2-1.9,1.9c-0.1,0-0.2-0.1-0.3-0.1c-1.6,4.4-5,8.2-8.8,8.2s-7.1-3.8-8.8-8.2
			c-0.1,0.1-0.2,0.1-0.3,0.1c-0.7,0.2-1.6-0.6-1.9-1.9c-0.3-1.2,0-2.4,0.7-2.6c0.2,0,0.3,0,0.5,0c0-0.1,0-0.1,0-0.2
			c3.2-0.8,6.5-1.3,9.8-1.3s6.6,0.4,9.8,1.3c0,0.1,0,0.1,0,0.2c0.2,0,0.3,0,0.5,0C36,16.3,36.3,17.5,36,18.7z"/>
	</g>
	<g>
		<g>
			<path d="M36.5,29.4l-0.7,0.9c0.7,0.1,1.5,0.3,2.3,0.5c-2.8,1.4-4.3,3.5-1.8,3.8c-0.3,0.9,1.4,0.7,2.2,2.5c-0.6,1-1.2,1.9-0.9,3.6
				c-0.3,0.2-0.6,0.5-0.8,0.8c-0.3,0.4-0.4,1,0,1.4c0.5,0.5,1.1,0.1,1.7,0.9c-0.4,0.5-0.6,1.1-1,1.6c-0.7,0.9-2.2,0.8-3,0
				c-0.9-1-0.8-2.6-2.3-3.1c-1.7-0.6-1.2,1.8-1.9,2.5c-0.3,0.4-0.9,0.4-1.4,0.4c-2.2,0.2-2,1.9-0.7,2.2c0.5,0.1,1,0,1.5-0.1
				C31,47,32.3,46.9,33,48H14.3c0.2-0.4,0.3-1.5,1.8-1.7s3,0.9,3.9-0.2c0.2,0.7,1,0.8,1.7,0.7c2.2-0.4,3.5-2.6,3-4.7
				c-0.1-0.3-0.2-0.7-0.1-1c0.2-0.4,0.6-0.5,0.9-0.5c0.4,0,0.7,0.2,1.1,0.3c1.1,0.5,2.4,0.7,3.6,0.7c1.5,0.1,1.7-0.9,1.1-1.5
				c-0.2-0.2-0.6-0.3-0.9-0.4c-0.9-0.4-1.9-0.9-2.2-1.8c0-0.1,0-0.1-0.1-0.2L25.5,35c-0.4,0.4-0.7,0.9-1,1.4s-0.7,1.1-1.2,1.5
				s-1.2,0.6-1.8,0.3l0,0l-0.4,0.4l-7.6-9.2c-0.7,0.1-1.5,0.3-2.1,0.6c-3.9,1.3-8.5,2.9-9,7.4c-0.1,0.5,0,0.5-0.1,3.8l0,0v6.3
				C2.3,48.3,3,49,3.9,49h42.3c0.8,0,1.5-0.7,1.5-1.5v-9.3l0,0v-0.1C47.7,32.7,41.2,30.4,36.5,29.4z M3.9,48c-0.3,0-0.5-0.2-0.5-0.5
				v-6.3C3.9,41,4,40.6,4.2,40.1c0.4-1,1.3-1,1.8,0.3c0.6,1.7,1.6,1.1,1.8,0.3c0.1-0.8-0.4-1.5-0.2-2.3c0.2-0.6,0.8-0.9,1.3-0.4
				c0,0.5,0,1,0.2,1.5v0.1c-0.2,1-0.4,1.9-0.6,2.9c-0.6,0.3-0.6,1.1-0.5,1.8c0,1.7,0.3,3,1.7,3.7H3.9z M10.8,31.1
				c0,0.1-0.1,0.2-0.1,0.2c-0.2,0-0.3,0-0.5,0C10.4,31.3,10.6,31.2,10.8,31.1z M10.3,44.2c0.5-1.1,0.3-2.5,1.3-3
				c2.4-0.2,3.5-2.3,2.5-3.4c-0.4-0.5-1.1-0.7-1.5-1.2c-0.5-0.7-0.2-1.8,0.5-2.2c0.7-0.5,1.7-0.4,2.4,0.1c0.5,0.3,0.9,0.7,1.2,1.2
				c-0.9,0.4-1.6,1.2-1.9,2.2c-0.1,0.6,0,1.3,0.5,1.6c0.4,0.2,0.9,0,1.4-0.1s1-0.2,1.3,0.2c0.4,0.5,0,1.2,0.3,1.7
				c0.2,0.4,0.8,0.5,1.3,0.4c0.5,0,1-0.1,1.4,0.2c1.3,1-0.6,2.7-0.9,3.3c-0.7-1.1-2.1-0.4-2.8-1.2c-0.6-0.7-0.2-2.9-1.7-2.4
				c-1.4,0.5-1.3,2-2.2,2.9C12.6,45.4,11,45.5,10.3,44.2z M46.1,48h-6.7c0.2-0.3,0.4-0.7,0.5-1c0.7,0.3,1.2-0.2,1.3-0.8
				c0.2-1.4-1.9-6.1,0.1-5.9c0.3,0,0.6,0.3,0.6,0.6c0.2,0.7-0.3,1.4-0.2,2.1c0.1,0.6,0.7,1,1.1,0.6c0.6,1.1,2.4,1.8,3.8,1.4
				C46.6,46.6,47.1,48,46.1,48z"/>
		</g>
	</g>
	<g>
		<path d="M27,5.5c-0.4-0.5-1.3-0.1-1.7,0.2c-0.3,0.3-0.5,0.6-0.7,1C24.5,7,24.3,7.3,24,7.5c0.3,0,0.7,0,1,0c0.7,0,1.3,0,2,0
			C26.8,6.9,27.4,6.1,27,5.5z M33,8.1c0.7,0.1,1.3,0.2,1.9,0.3C33.7,4.2,29.7,1,25,1s-8.7,3.1-9.9,7.5c1-0.2,2.1-0.4,3.1-0.5l0,0
			c-0.2-0.3-0.5-0.5-0.7-0.7C17.3,7,17.1,6.8,17,6.5c0.3-0.5,0.7-1,1.1-1.5c0.4,0.3,0.6,0.8,0.8,1.3C19,6.4,19,6.5,19,6.6
			c-0.3,0.3-0.5,0.6-0.6,1c0,0.1,0,0.2,0,0.3c1.3-0.2,2.7-0.3,4-0.4C22.2,7.3,22,7,21.8,6.7C21.5,6.3,21,6.1,20.5,6
			c0-0.6-0.2-1.2-0.5-1.7c-0.1-0.2-0.3-0.5-0.4-0.8C21.2,2.6,23,2,25,2c0.9,0,1.7,0.1,2.5,0.4C26.2,3.2,25,3.8,25,3.8
			s-0.2-0.1-0.5-0.3c-0.3,0.3-0.8,0.5-1.2,0.7c-0.2,0.1-0.4,0.2-0.6,0.3c-0.2,0.1-0.3,0.4-0.3,0.6c0.1,0.4,0.6,0.5,1,0.5
			c0.9,0,1.8-0.2,2.6-0.5c0.3-0.1,0.5-0.2,0.8-0.2s0.6,0.1,0.7,0.4c0.1,0.2,0,0.5-0.1,0.7c-0.1,0.5-0.1,1.1,0.1,1.6
			c1,0,1.9,0.1,2.9,0.2c-0.1-0.1-0.1-0.2-0.2-0.3C30,7.3,29.8,7,29.7,6.7c-0.1-0.3,0-0.7,0.3-0.9c0.3-0.2,0.6-0.1,1-0.1
			c0.3,0,0.7,0,0.9-0.3c0.1,0,0.3,0,0.4,0c0.4,0.5,0.8,1.1,1.1,1.8l0,0C33.2,7.5,33.1,7.8,33,8.1z M28.3,2.9
			c-0.1-0.1-0.3-0.3-0.4-0.4c0.5,0.2,1,0.4,1.5,0.7C29.1,3.3,28.7,3.2,28.3,2.9z M36.7,13.8c-0.2-0.4-0.4-0.9-0.6-1.3
			c-0.1,0-1.1-0.2-1.3-0.3c0.3,0.6,0.7,1.2,1,1.8c-0.5-0.1-0.9-0.2-1.4-0.3c0.3-0.4,0.4-1,0.4-1.5c-0.5-0.1-1.1-0.2-1.6-0.3
			c-0.6,1-1.9,0.9-2.4-0.4c-0.7-0.1-1.4-0.1-2-0.2c-0.3,1.2-1.8,0.3-2.1,1.3c-2.2-0.1-1.4,0-2.6,0c0.5-0.4,0.8-0.9,0.9-1.4
			c-0.8,0-1.5,0-2.3,0.1c-0.3,0.5-0.9,0.9-0.7,1.5c-0.2,0-0.4,0-0.6,0.1c-0.6-0.9-1.9,0-2.3-1.2c-0.8,0.1-1.6,0.2-2.5,0.4
			c-0.3,0.6-0.8,1-1.5,0.9c0.1-0.2,0.2-0.4,0.4-0.6c-0.2,0-1.1,0.2-1.3,0.3c-0.2,0.4-0.4,0.9-0.6,1.3c-0.3,0.7,0.3,1.5,1.1,1.3
			c6.9-1.9,14.3-1.9,21.2,0C36.4,15.3,37,14.6,36.7,13.8z M27,5.5c-0.4-0.5-1.3-0.1-1.7,0.2c-0.3,0.3-0.5,0.6-0.7,1
			C24.5,7,24.3,7.3,24,7.5c0.3,0,0.7,0,1,0c0.7,0,1.3,0,2,0C26.8,6.9,27.4,6.1,27,5.5z M27,5.5c-0.4-0.5-1.3-0.1-1.7,0.2
			c-0.3,0.3-0.5,0.6-0.7,1C24.5,7,24.3,7.3,24,7.5c0.3,0,0.7,0,1,0c0.7,0,1.3,0,2,0C26.8,6.9,27.4,6.1,27,5.5z"/>
	</g>
	<g>
		<path d="M35.4,11.4c0-0.6-0.1-1.2-0.2-1.8c-6.7-1.4-13.6-1.4-20.4,0c-0.1,0.6-0.2,1.2-0.2,1.8l0,0l0,0
			C21.5,9.9,28.5,9.9,35.4,11.4C35.3,11.4,35.3,11.4,35.4,11.4L35.4,11.4z"/>
	</g>
	<g>
		<path d="M34.7,12.3L34.7,12.3L34.7,12.3L34.7,12.3z"/>
	</g>
	<g>
		<path d="M32.2,27.7c-0.3-0.2-0.7-0.2-1,0.1c-2,2.1-6,5.4-6.2,5.5l3.8,3.9l6.6-7.9C34,28.9,32.8,28.2,32.2,27.7z"/>
	</g>
	<g>
		<path d="M18.8,27.7c-0.3-0.3-0.7-0.3-1-0.1c-0.6,0.5-1.8,1.2-3.2,1.5l6.6,7.9l3.8-3.9C24.9,33.1,20.8,29.8,18.8,27.7z"/>
	</g>
</g>
</svg>
