<?xml version="1.0" encoding="utf-8"?>
<!-- Generator: Adobe Illustrator 23.1.0, SVG Export Plug-In . SVG Version: 6.00 Build 0)  -->
<svg version="1.1" xmlns="http://www.w3.org/2000/svg" xmlns:xlink="http://www.w3.org/1999/xlink" x="0px" y="0px"
	 viewBox="0 0 100 101" style="enable-background:new 0 0 100 101;" xml:space="preserve">
<g id="Layer_2">
</g>
<g id="Layer_1">
	<g>
		<path d="M5273.1,2400.1v-2c0-2.8-5-4-9.7-4s-9.7,1.3-9.7,4v2c0,1.8,0.7,3.6,2,4.9l5,4.9c0.3,0.3,0.4,0.6,0.4,1v6.4
			c0,0.4,0.2,0.7,0.6,0.8l2.9,0.9c0.5,0.1,1-0.2,1-0.8v-7.2c0-0.4,0.2-0.7,0.4-1l5.1-5C5272.4,2403.7,5273.1,2401.9,5273.1,2400.1z
			 M5263.4,2400c-4.8,0-7.4-1.3-7.5-1.8l0,0c0.1-0.5,2.7-1.8,7.5-1.8s7.3,1.3,7.5,1.8C5270.7,2398.7,5268.2,2400,5263.4,2400z"/>
		<path d="M5268.4,2410.3c-0.6,0-1,0.4-1,1s0.4,1,1,1h4.3c0.6,0,1-0.4,1-1s-0.4-1-1-1H5268.4z"/>
		<path d="M5272.7,2413.7h-4.3c-0.6,0-1,0.4-1,1s0.4,1,1,1h4.3c0.6,0,1-0.4,1-1C5273.7,2414.1,5273.3,2413.7,5272.7,2413.7z"/>
		<path d="M5272.7,2417h-4.3c-0.6,0-1,0.4-1,1s0.4,1,1,1h4.3c0.6,0,1-0.4,1-1C5273.7,2417.5,5273.3,2417,5272.7,2417z"/>
	</g>
	<g>
		<path d="M96,43c-11.1-4.6-23-7.4-35-7.9c0.4,4,0.2,8-0.6,11.9c-0.1,0.7-0.4,1.3-0.5,2c0.7-0.2,1.5-0.2,2.2-0.1
			c2.6,0.5,4.6,2.6,5.4,5.8c0.1,0.5,0,1-0.4,1.3c-0.3,0.4-0.8,0.5-1.3,0.4L57.5,55c-3,5.5-7.6,10-13.2,12.6c0.1,1.5,0.3,2.9,0.6,4.4
			c2,9.7,9.6,17.1,19.4,18.8c9.8,1.7,19.4-2.6,24.7-11c2.3-3.7,3.8-7.7,4.6-12l3.9-22.1C97.6,44.6,97.1,43.5,96,43z M75.9,77.1
			L58,74c-1-0.2-1.7-1.2-1.3-2.2c1.8-4.8,6.8-7.9,12.1-6.9c5.3,0.9,9,5.5,9,10.7C77.9,76.5,77,77.3,75.9,77.1z M85.7,59.3
			c-0.3,0.4-0.8,0.5-1.3,0.4L74.7,58c-0.5-0.1-0.9-0.4-1.1-0.8c-0.2-0.4-0.2-1,0.1-1.4c1.7-2.7,4.4-4.1,7-3.6s4.6,2.6,5.4,5.8
			C86.1,58.4,86,58.9,85.7,59.3z"/>
		<path d="M55.1,45.9c0.9-4.2,1-8.6,0.2-12.8l-3.9-22.2c-0.2-1.1-1.1-1.9-2.2-2c-15.4-0.8-31,2-45.2,8c-1,0.4-1.6,1.5-1.4,2.6
			l3.9,22.2c0.8,4.3,2.3,8.3,4.6,12c5.2,8.4,14.9,12.8,24.7,11C45.5,63,53.1,55.6,55.1,45.9z M15.7,33.6c-0.5,0.1-1-0.1-1.3-0.4
			c-0.3-0.4-0.5-0.8-0.4-1.3c0.7-3.1,2.7-5.3,5.3-5.8s5.2,0.9,7,3.6c0.3,0.4,0.3,0.9,0.1,1.4c-0.2,0.5-0.6,0.8-1.1,0.9L15.7,33.6z
			 M33.4,51.8c-5.3,0.9-10.3-2.1-12.1-6.9c-0.4-1,0.3-2,1.3-2.2l17.9-3.1c1-0.2,2,0.6,2,1.6C42.4,46.3,38.7,50.8,33.4,51.8z
			 M45,27.7c-0.2,0.4-0.6,0.8-1.1,0.9l-9.7,1.7c-0.5,0.1-1-0.1-1.3-0.4c-0.3-0.4-0.5-0.8-0.4-1.3c0.7-3.1,2.7-5.3,5.3-5.8
			s5.2,0.9,7,3.6C45.1,26.8,45.1,27.3,45,27.7z"/>
	</g>
</g>
</svg>
