<?xml version="1.0" encoding="utf-8"?>
<!-- Generator: Adobe Illustrator 19.1.0, SVG Export Plug-In . SVG Version: 6.00 Build 0)  -->
<svg version="1.1" id="Layer_1" xmlns="http://www.w3.org/2000/svg" xmlns:xlink="http://www.w3.org/1999/xlink" x="0px" y="0px"
	 viewBox="-138.8 338.7 79.6 99.3" style="enable-background:new -138.8 338.7 79.6 99.3;" xml:space="preserve">
<path d="M-99.2,353.9c2.6,0,4.7-2.1,4.7-4.7c0-2.6-2.1-4.7-4.7-4.7c-2.6,0-4.7,2.1-4.7,4.7C-103.9,351.8-101.8,353.9-99.2,353.9z"/>
<rect x="-120.4" y="407.5" width="10.3" height="13.2"/>
<rect x="-104.4" y="398.4" width="10.3" height="22.2"/>
<rect x="-88.3" y="380.4" width="10.3" height="40.3"/>
<path d="M-72.3,344.4h-14c-1.4-2.8-4.1-5-7.3-5.7c0,0,0,0-0.1,0c-0.1,0-0.1,0-0.2,0c-0.4,0-0.8,0.3-0.8,0.8c0,0.3,0.2,0.6,0.5,0.7
	c3.4,1.8,5.7,5.4,5.7,9.5h8.9c5.9,0,10.8,4.8,10.8,10.8v3.4c0,1.8-1.5,3.3-3.3,3.3h-54.3c-1.8,0-3.3-1.5-3.3-3.3v-3.4
	c0-5.9,4.8-10.8,10.8-10.8h8.9c0-1.9,0.5-3.7,1.4-5.2h-17c-7.2,0-13.1,5.9-13.1,13.1v67.4v0c0,7.2,5.9,13.1,13.1,13.1h53.4
	c7.2,0,13.1-5.9,13.1-13.1v0v-67.4C-59.2,350.3-65.1,344.4-72.3,344.4z M-72.1,423.3c0,1.8-1.5,3.3-3.3,3.3h-47.7
	c-1.8,0-3.3-1.5-3.3-3.3v-45.6c0-1.8,1.5-3.3,3.3-3.3h47.7c1.8,0,3.3,1.5,3.3,3.3V423.3z"/>
<rect x="-120.4" y="407.5" width="10.3" height="13.2"/>
<rect x="-104.4" y="398.4" width="10.3" height="22.2"/>
<rect x="-88.3" y="380.4" width="10.3" height="40.3"/>
</svg>
