<?xml version="1.0" encoding="utf-8"?>
<!-- Generator: Adobe Illustrator 19.1.0, SVG Export Plug-In . SVG Version: 6.00 Build 0)  -->
<svg version="1.1" id="Layer_1" xmlns="http://www.w3.org/2000/svg" xmlns:xlink="http://www.w3.org/1999/xlink" x="0px" y="0px"
	 viewBox="-134.5 343.5 71 89" style="enable-background:new -134.5 343.5 71 89;" xml:space="preserve">
<title>143all</title>
<path d="M-131.5,432.5h48c1.7,0,3-1.4,3-3c0-1.1-0.6-2-1.5-2.6l-48-28c-1.4-0.8-3.3-0.3-4.1,1.1c-0.3,0.5-0.4,1-0.4,1.5v28
	C-134.5,431.2-133.2,432.5-131.5,432.5z"/>
<path d="M-82.3,346.7L-82.3,346.7c-3.4,3.4-4.2,8.6-2,12.8l-8.6,8.6l-22.7-22.7c-1.2-1.1-3-1.1-4.2,0c-14.9,14.9-14.9,39,0,53.9
	c14.9,14.9,39,14.9,53.9,0c1.2-1.2,1.2-3.1,0-4.2l-22.7-22.7l8.4-8.5c5.2,3.1,12,1.5,15.1-3.7c3.1-5.2,1.5-12-3.7-15.1
	C-73.1,342.5-78.7,343.1-82.3,346.7z"/>
</svg>
