<?xml version="1.0" encoding="utf-8"?>
<!-- Generator: Adobe Illustrator 19.1.0, SVG Export Plug-In . SVG Version: 6.00 Build 0)  -->
<svg version="1.1" id="Layer_1" xmlns="http://www.w3.org/2000/svg" xmlns:xlink="http://www.w3.org/1999/xlink" x="0px" y="0px"
	 viewBox="-83.6 298.3 96.8 163.7" style="enable-background:new -83.6 298.3 96.8 163.7;" xml:space="preserve">
<path d="M-18.2,424.1l-13.7-8.5l11.3-6.8L-18.2,424.1L-18.2,424.1z M2.5,340.4c-0.8-17.5-14.8-31.2-31.7-31.3l0.2,4.1
	c14.7,0.2,26.9,12.2,27.6,27.4L2.5,340.4L2.5,340.4z M-72.8,340.4c0.8-17.5,14.8-31.2,31.7-31.3l-0.2,4.1
	c-14.7,0.2-26.9,12.2-27.6,27.4L-72.8,340.4L-72.8,340.4z M-63.6,341.3l2.9,0.1c0.5-11.2,9.5-20,20.3-20.2l0.1-3
	C-52.7,318.3-63,328.4-63.6,341.3L-63.6,341.3z M-83.6,339.1l5.1,0.2c0.9-19.8,16.7-35.4,35.8-35.7l0.2-5.3
	C-64.4,298.5-82.6,316.3-83.6,339.1L-83.6,339.1z M-6.8,341.3l-2.9,0.1c-0.5-11.2-9.5-20-20.3-20.2l-0.1-3
	C-17.6,318.3-7.3,328.4-6.8,341.3L-6.8,341.3z M13.2,339.1l-5.1,0.2c-0.9-19.8-16.7-35.4-35.8-35.7l-0.2-5.3
	C-6,298.5,12.2,316.3,13.2,339.1L13.2,339.1z M-44.6,356.4L-44.6,356.4l-2.7,0.1v2.7h2.7l-14,90.1h47.1l-13.9-90.1h2.7v-2.7h-2.7
	v-0.2c3-2.6,4.8-6.5,4.8-10.8c0-8-6.4-14.4-14.4-14.4s-14.4,6.4-14.4,14.4C-49.6,349.8-47.6,353.7-44.6,356.4L-44.6,356.4z
	 M-21.8,401.4l-11-8.4l8.6-6.8L-21.8,401.4L-21.8,401.4z M-25.4,378.7l-8.1-8.7l5.8-6L-25.4,378.7L-25.4,378.7z M-29.6,361.9
	l-4.1,4.4v-4.4H-29.6L-29.6,361.9z M-36.5,361.9v4.8l-4.5-4.8H-36.5L-36.5,361.9z M-42.5,363.5l5.7,6.2l-8,8.6L-42.5,363.5
	L-42.5,363.5z M-46.1,386.3l8.6,6.7l-11.1,9.1L-46.1,386.3L-46.1,386.3z M-49.4,407.9l11.9,7.7l-14.5,9.1L-49.4,407.9L-49.4,407.9z
	 M-49.4,426.2l12.9-7.8v7.8H-49.4L-49.4,426.2z M-33.7,426.2h12.5l-12.5-8.1L-33.7,426.2L-33.7,426.2z M-20.4,428.9l-13.4,7.3v-7.3
	L-20.4,428.9L-20.4,428.9z M-36.5,428.9v7.3l-13.5-7.3H-36.5L-36.5,428.9z M-46.9,404l10.4-8.2v8.2H-46.9L-46.9,404z M-33.7,404
	v-8.1l10.5,8.1H-33.7L-33.7,404z M-23.6,406.8h-10.2v6.4L-23.6,406.8L-23.6,406.8z M-36.5,406.8v6.1l-9.9-6.1H-36.5L-36.5,406.8z
	 M-44.3,381.3l7.8-8.1v8.1H-44.3L-44.3,381.3z M-33.7,381.3v-8.2l7.5,8.2H-33.7L-33.7,381.3z M-26.3,384l-7.4,6v-6H-26.3L-26.3,384z
	 M-42.2,440.7h-12.3l1.6-10.2l15.1,7.9L-42.2,440.7L-42.2,440.7z M-15.6,440.7h-12l-4.8-2.4l15.1-8.1L-15.6,440.7L-15.6,440.7z
	 M-67.7,453.5v8.5h65.1v-8.5H-67.7L-67.7,453.5z M-36.5,384v6.2l-8.1-6.2H-36.5z"/>
</svg>
