<?xml version="1.0" encoding="utf-8"?>
<!-- Generator: Adobe Illustrator 23.1.0, SVG Export Plug-In . SVG Version: 6.00 Build 0)  -->
<svg version="1.1" xmlns="http://www.w3.org/2000/svg" xmlns:xlink="http://www.w3.org/1999/xlink" x="0px" y="0px"
	 viewBox="0 0 100 103.8" style="enable-background:new 0 0 100 103.8;" xml:space="preserve">
<g id="Layer_2">
</g>
<g id="Layer_1">
	<path d="M0.9,23v54.1h98.2V23H0.9z M95.1,73.1H4.9V27h90.2V73.1z"/>
	<path d="M34.9,50.1c0-7.5,2.9-13.7,7.9-16.5l0.3-0.2l-0.8-3.6H16.2v2c0,2.8-2.3,5.1-5.1,5.1h-2v25.8h2c2.8,0,5.1,2.3,5.1,5.1
		c0,0.1,0,0.1,0,0.2L16,70.3h26.2l0.8-3.6l-0.3-0.2C37.8,63.7,34.9,57.6,34.9,50.1z M27.1,55.7h-9.2v-4h9.2V55.7z M27.1,47.7h-9.2
		v-4h9.2V47.7z"/>
	<path d="M88.9,36.9c-2.8,0-5.1-2.3-5.1-5.1v-2h-26L57,33.4l0.3,0.2c4.9,2.8,7.9,8.9,7.9,16.5s-3,13.7-7.9,16.5L57,66.7l0.8,3.6H84
		L83.9,68c0-0.1,0-0.1,0-0.2c0-2.8,2.3-5.1,5.1-5.1h2V36.9L88.9,36.9L88.9,36.9z M82.1,55.7h-9.2v-4h9.2V55.7z M82.1,47.7h-9.2v-4
		h9.2V47.7z"/>
	<path d="M35.8,17.1L30.6,12h26.2c6.3,0,12,3.4,15,9l3.5-1.9C71.7,12.2,64.6,8,56.8,8H30.6l5.2-5.2L33,0L23,10l10,9.9L35.8,17.1z"/>
	<path d="M64.3,82.8l5.4,5.3H43.2c-6.3,0-12.1-3.5-15.1-9.1l-3.5,1.9c3.7,6.9,10.8,11.2,18.6,11.2h26.1l-5,5l2.8,2.8l10-10L67,80
		L64.3,82.8z"/>
</g>
</svg>
