<?xml version="1.0" encoding="utf-8"?>
<!-- Generator: Adobe Illustrator 23.1.0, SVG Export Plug-In . SVG Version: 6.00 Build 0)  -->
<svg version="1.1" id="Layer_1" xmlns="http://www.w3.org/2000/svg" xmlns:xlink="http://www.w3.org/1999/xlink" x="0px" y="0px"
	 viewBox="0 0 128 130" style="enable-background:new 0 0 128 130;" xml:space="preserve">
<g>
	<g>
		<path d="M71.2,52H66v-5.4c0-0.9-0.7-1.6-1.6-1.6c-0.9,0-1.6,0.7-1.6,1.6V52h-5.2c-0.9,0-1.6,0.7-1.6,1.6c0,0.9,0.7,1.6,1.6,1.6
			h5.2v5.4c0,0.9,0.7,1.6,1.6,1.6s1.6-0.7,1.6-1.6v-5.4h5.2c0.9,0,1.6-0.7,1.6-1.6C72.9,52.7,72.1,52,71.2,52z"/>
		<path d="M64,2C29.8,2,2,29.8,2,64s27.8,62,62,62s62-27.8,62-62S98.2,2,64,2z M16.2,53.7l18.7-23.9c0.2-0.3,0.5-0.3,0.6-0.3
			c0.1,0,0.4,0.1,0.5,0.4c1.7,3.5,1.6,7.6-0.5,11c0,0-9.7,14.6-10.5,15.5c-1.9,2.4-3.5,4.8-2.1,7.5l4.4,8.4c0.3,0.6,1.1,0.9,1.8,0.5
			c0.6-0.4,0.9-1.2,0.5-1.8l-4.4-8.4c-0.7-1.4-0.2-3.1,1.2-3.9c1.4-0.8,3.3-0.4,4.1,0.9l4.3,6.7c1.9,2.9,2.8,6.3,2.8,9.7l0,6.9
			l-15.2,0.1c-0.2-1.6-0.8-3.1-1.7-4.5l-4-6.1C12.9,66.9,12.8,59.7,16.2,53.7z M39.5,94.3H19.7v-8.5h19.8
			C39.5,85.7,39.5,94.3,39.5,94.3z M81.5,50.2C80.9,62,66.5,69.9,64.8,70.8c-0.2,0.1-0.5,0.2-0.8,0.2c-0.4,0-0.8-0.1-1.1-0.4
			c-0.1-0.1-0.5-0.3-0.9-0.6c-3.4-2.2-13.9-9-15.5-18.5c-0.4-2.6-0.6-7.5,2.7-11.1c3.1-3.3,7.4-3.4,7.9-3.4c2.6,0,5,1.4,6.8,2.8
			c1.8-1.5,4.2-2.8,6.7-2.8c0,0,0,0,0.1,0c1.9,0.1,5.3,0.6,7.9,3.4C81.9,43.8,81.6,48.3,81.5,50.2z M108.3,94.4H88.6v-8.5h19.7V94.4
			z M107.4,78.7c-0.9,1.4-1.5,2.9-1.7,4.5l-15.2-0.1l0-6.9c0-3.5,0.9-6.8,2.8-9.7l4.3-6.7c0.9-1.3,2.7-1.7,4.1-0.9
			c1.4,0.8,1.9,2.5,1.2,3.9l-4.4,8.4c-0.3,0.6-0.1,1.5,0.5,1.8c0.6,0.4,1.4,0.1,1.8-0.5L105,64c1.4-2.6-0.3-5-2.1-7.5
			C102,55.3,92.4,41,92.4,41c-2-3.4-2.2-7.5-0.5-11c0.1-0.3,0.4-0.4,0.5-0.4c0.1,0,0.4,0,0.6,0.3l18.7,23.9c3.4,6,3.3,13.2-0.4,18.9
			L107.4,78.7z"/>
	</g>
</g>
</svg>
