<?xml version="1.0" encoding="utf-8"?>
<!-- Generator: Adobe Illustrator 23.1.0, SVG Export Plug-In . SVG Version: 6.00 Build 0)  -->
<svg version="1.1" id="Layer_1" xmlns="http://www.w3.org/2000/svg" xmlns:xlink="http://www.w3.org/1999/xlink" x="0px" y="0px"
	 viewBox="0 0 56 58" style="enable-background:new 0 0 56 58;" xml:space="preserve">
<title>050 - Housing</title>
<desc>Created with Sketch.</desc>
<g>
	<g>
		<rect x="34" y="19" width="6" height="5"/>
		<path d="M12,48v8h11v-8H12z M21,53h-1c-0.6,0-1-0.4-1-1s0.4-1,1-1h1c0.6,0,1,0.4,1,1S21.6,53,21,53z"/>
		<path d="M21,46v-1.9c0-1.9-0.6-3.8-1.8-5.3c-0.6-0.8-1.4-1.4-2.4-1.8c-2.3-1-4.5-2.3-6.4-4c-0.9-0.8-2.3-0.8-3.2-0.1
			c0.4,0.5,0.8,1,1.2,1.5L13,39c0.4,0.4,0.4,1,0,1.4s-1,0.4-1.4,0L7,35.9c-1.1-1.1-1.9-2.3-2.5-3.7l-2.2-5.2
			c-0.2-0.4-0.6-0.7-1.1-0.7c-0.4,0-0.8,0.2-1,0.5s-0.3,0.8-0.1,1.1L4,36.5c0.4,0.9,1,1.8,1.8,2.5l6.9,6.9H21z"/>
		<rect x="16" y="19" width="12" height="5"/>
		<path d="M28,0.2L11.2,12c0.5,0.1,0.8,0.5,0.8,1v18.7c1.6,1.5,3.5,2.6,5.5,3.5c1.3,0.5,2.5,1.3,3.3,2.4c0.4,0.4,0.7,0.9,0.9,1.4H32
			v-8c0-1.1,0.9-2,2-2h4c1.1,0,2,0.9,2,2v3.5c1.4-0.8,2.8-1.7,4-2.8V13c0-0.5,0.4-0.9,0.8-1L28,0.2z M28,26H16c-1.1,0-2-0.9-2-2v-5
			c0-1.1,0.9-2,2-2h12c1.1,0,2,0.9,2,2v5C30,25.1,29.1,26,28,26z M40,26h-6c-1.1,0-2-0.9-2-2v-5c0-1.1,0.9-2,2-2h6c1.1,0,2,0.9,2,2
			v5C42,25.1,41.1,26,40,26z"/>
		<path d="M33,48v8h11v-8H33z M36,53h-1c-0.6,0-1-0.4-1-1s0.4-1,1-1h1c0.6,0,1,0.4,1,1S36.6,53,36,53z"/>
		<path d="M55.8,26.8c-0.2-0.3-0.6-0.5-1-0.5c-0.5,0-0.9,0.3-1.1,0.7l-2.2,5.2c-0.6,1.4-1.5,2.7-2.5,3.7l-4.6,4.6
			c-0.4,0.4-1,0.4-1.4,0s-0.4-1,0-1.4l4.6-4.6c0.5-0.5,0.9-1,1.2-1.5c-1-0.7-2.3-0.7-3.2,0.1c-1.8,1.6-3.9,3-6.1,3.9c0,0,0,0,0,0
			c-0.1,0-0.1,0.1-0.2,0.1c-1,0.3-1.8,1-2.4,1.8c-1.2,1.5-1.8,3.4-1.8,5.3V46h8.3l6.9-6.9c0.7-0.7,1.3-1.6,1.8-2.5l3.9-8.6
			C56.1,27.5,56,27.1,55.8,26.8z"/>
		<path d="M34,39h0.3c0.3-0.5,0.6-1,0.9-1.4c0.7-1,1.7-1.7,2.8-2.2V31h-4V39z"/>
	</g>
</g>
</svg>
