<?xml version="1.0" encoding="utf-8"?>
<!-- Generator: Adobe Illustrator 19.1.0, SVG Export Plug-In . SVG Version: 6.00 Build 0)  -->
<svg version="1.1" id="Layer_1" xmlns="http://www.w3.org/2000/svg" xmlns:xlink="http://www.w3.org/1999/xlink" x="0px" y="0px"
	 viewBox="-144 343 90 90" style="enable-background:new -144 343 90 90;" xml:space="preserve">
<rect x="-129" y="413.6" width="15" height="5"/>
<rect x="-84" y="413.6" width="15" height="5"/>
<path d="M-56.1,400l-20.2-6.2l-0.7,1.2l-4.1-0.9c2.3-4.6,3.5-10,3.5-15.6c0-1.6-0.1-3.2-0.3-4.6l2.2-0.4l10.6-12.9l-10.6-12.9
	L-99,343l-23.2,4.6l-10.6,12.9l10.6,12.9l2.2,0.4c-0.2,1.4-0.3,3-0.3,4.6c0,5.6,1.2,11.1,3.5,15.6l-4.1,0.9l-0.7-1.2l-20.2,6.2
	l1,5.4c-2,3.1-3.1,6.8-3.1,10.7V433h90v-16.9c0-3.9-1.1-7.6-3.1-10.7L-56.1,400z M-74.1,399.7l12.3,3.8l-0.4,1.9l-13-3.9
	L-74.1,399.7z M-91.5,352.1l11.6,2.3l5,6l-4.1,4.9c-0.4-4.2-5.8-6.9-12.5-8.1V352.1z M-81.5,365.9l-2.5,0v0L-81.5,365.9L-81.5,365.9
	z M-101.5,355l2.5,0.6l2.5-0.6v4l-2.5,1.2l-2.5-1.2V355z M-99,365.8l6.9-3.5c5,0.9,7.8,2.6,8,3.5c-1.4,1-7.9,1-12.7,1l-2.3,0l-2.3,0
	c-4.8,0-11.2,0-12.7-1c0.3-0.8,3-2.6,8-3.5L-99,365.8z M-85.2,378.4c0,7.3-2.9,19.6-13.8,19.6s-13.8-12.3-13.8-19.6
	c0-2.8,0.4-5.1,1.1-7c2.8,0.3,6.3,0.3,10.3,0.3l2.3,0l2.3,0c0.7,0,1.5,0,2.2,0c3.1,0,5.9,0,8.2-0.3
	C-85.6,373.3-85.2,375.6-85.2,378.4z M-119,365.4l-4.1-4.9l5-6l11.6-2.3v5.2C-113.2,358.5-118.6,361.2-119,365.4z M-123.9,399.7
	l1.1,1.8l-13,3.9l-0.4-1.9L-123.9,399.7z M-136.5,425.5v-9.4c0-2,0.5-4,1.4-5.7l19.9-6l-1.6-2.7l2.8-0.6l12.2,24.4H-136.5z
	 M-107,403.8c2.4,1.1,5.1,1.7,8,1.7s5.7-0.6,8-1.7l-8,16.1L-107,403.8z M-61.5,425.5h-34.7l12.2-24.4l2.8,0.6l-1.6,2.7l19.9,6
	c0.9,1.7,1.4,3.6,1.4,5.7L-61.5,425.5L-61.5,425.5z"/>
</svg>
