<?xml version="1.0" encoding="utf-8"?>
<!-- Generator: Adobe Illustrator 23.1.0, SVG Export Plug-In . SVG Version: 6.00 Build 0)  -->
<svg version="1.1" id="Layer_1" xmlns="http://www.w3.org/2000/svg" xmlns:xlink="http://www.w3.org/1999/xlink" x="0px" y="0px"
	 viewBox="0 0 66 63.7" style="enable-background:new 0 0 66 63.7;" xml:space="preserve">
<style type="text/css">
	.st0{fill:#FFFFFF;}
	.st1{font-family:'SanomatSans-Medium';}
	.st2{font-size:29.479px;}
</style>
<g>
	<path d="M65,49.2c0,0.4-0.3,0.8-0.7,0.9l-26.4,9.2c-0.9,0.3-1.7,0.4-2.6,0.4c-0.8,0-1.5-0.1-2.3-0.3l-17.8-5.3V36.8h1.3
		c4.5,0,8.9,1.5,12.6,4.1c2.4,0.6,14.5-2.5,13.7,5c-0.1,0.9-0.4,1.7-0.9,2.4l3,0.2l13.3-4.2C61.5,43.1,65,45.6,65,49.2z"/>
</g>
<path d="M13.2,34.4v20.8c0,0.5-0.5,1-1,1H2c-0.5,0-1-0.5-1-1V34.4c0-0.6,0.5-1,1-1h10.2C12.8,33.4,13.2,33.9,13.2,34.4z"/>
<path d="M39,3.8L39,3.8c-9.1,0.1-16.3,7.4-16.2,16.4c0.1,8.9,7.3,16.1,16.2,16.1h0.1C48,36.2,55.2,29,55.2,20.1V20
	C55.2,10.9,47.9,3.8,39,3.8z"/>
<text transform="matrix(1 0 0 1 30.8005 29.24)" class="st0 st1 st2">₹</text>
</svg>
