<?xml version="1.0" encoding="utf-8"?>
<!-- Generator: Adobe Illustrator 19.1.0, SVG Export Plug-In . SVG Version: 6.00 Build 0)  -->
<svg version="1.1" id="Layer_1" xmlns="http://www.w3.org/2000/svg" xmlns:xlink="http://www.w3.org/1999/xlink" x="0px" y="0px"
	 viewBox="-128 343 56.4 90.1" style="enable-background:new -128 343 56.4 90.1;" xml:space="preserve">
<path d="M-71.6,433l-3.1-6.9h2.7l-1.9-4.3h-2.8l-2.6-5.8h3.2l-1.9-4.3h-3.3l-2.2-4.7l10.6-6.8v-32.7l-3.8-6.1l0.2-9.9
	c0,0,0.4-8.5-22.4-8.5s-22.4,8.5-22.4,8.5l0.2,9.9l-3.8,6.1v32.6l10.1,6.5l-2.3,5.1h-4.4l-1.9,4.3h4.3l-2.6,5.8h-4.4l-1.9,4.3h4.3
	l-3.1,6.9h4.8l3.1-6.8h9.9h2.6h27l3.1,6.9h4.7V433z M-79.4,396.2c0,1.6-1.3,2.9-2.9,2.9s-2.9-1.3-2.9-2.9c0-1.6,1.3-2.9,2.9-2.9
	C-80.7,393.2-79.4,394.5-79.4,396.2z M-95.5,348c0,0,9.8,1.1,13.2,4.5v8.8l-13.2-3.1C-95.5,358.2-95.5,348-95.5,348z M-98.9,365
	c2.2,0,4,1.8,4,4s-1.8,4-4,4c-2.2,0-4-1.8-4-4S-101.1,365-98.9,365z M-116.2,352.6c3.4-3.4,13.2-4.5,13.2-4.5v10.3l-13.2,3.1V352.6z
	 M-116.2,396.2c0-1.6,1.3-2.9,2.9-2.9s2.9,1.3,2.9,2.9c0,1.6-1.3,2.9-2.9,2.9C-114.9,399.1-116.2,397.8-116.2,396.2z M-110.8,408.3
	h11.9h11.3l1.6,3.4h-15.8h-6.3h-4.3L-110.8,408.3z M-106.4,421.8h-2.6h-8l2.6-5.8h6.2h6.3h17.7l2.6,5.8H-106.4z"/>
</svg>
