<?xml version="1.0" encoding="utf-8"?>
<!-- Generator: Adobe Illustrator 19.1.0, SVG Export Plug-In . SVG Version: 6.00 Build 0)  -->
<svg version="1.1" id="Layer_1" xmlns="http://www.w3.org/2000/svg" xmlns:xlink="http://www.w3.org/1999/xlink" x="0px" y="0px"
	 viewBox="-144 347.8 90 81" style="enable-background:new -144 347.8 90 81;" xml:space="preserve">
<path d="M-85.9,365.6l0.1,2.7h-4.4l0.1-2.7h0.7c0,0,0,0,0,0c0,0,0,0,0,0H-85.9z M-91.8,398.2h7.6l-0.8-14.4h-6L-91.8,398.2z
	 M-84.1,399.2h-7.7l-0.8,15.3h9.3L-84.1,399.2z M-90.9,382.8h5.9l-0.7-13.4h-4.5L-90.9,382.8z"/>
<path d="M-93.4,353.7c0-0.4,0.3-0.8,0.8-0.8c0.4,0,0.8,0.3,0.8,0.8c0,0.4-0.3,0.8-0.8,0.8C-93.1,354.5-93.4,354.1-93.4,353.7z
	 M-107.2,356.2c0-2.7,2.2-4.8,4.8-4.8c0.5,0,1,0.1,1.6,0.3c0.2,0.1,0.5,0,0.6-0.3c1-2.2,3.2-3.6,5.6-3.6c2.4,0,4.6,1.4,5.6,3.6
	c0.1,0.2,0.2,0.3,0.4,0.3c1.7,0.1,3.1,1.6,3.1,3.4c0,1.3-0.8,2.6-2,3.1c-0.3,0.1-0.4,0.4-0.3,0.7c0.4,1,0.6,2,0.6,3.1
	c0,0.8-0.2,1.9-0.4,2.7h-1.2c0.1-0.4,0.1-0.9,0.1-1.2c0-1.6-0.7-3.2-2-4.2c-0.2-0.1-0.4-0.2-0.6,0c-1.2,0.8-2.7,1.1-4.1,0.9
	c-0.1,0-0.3,0-0.4,0.1c-0.1,0.1-0.2,0.2-0.2,0.4c0,1.5-1.3,2.7-2.8,2.7c0,0-0.1,0-0.2,0c-1.1-0.1-2.1-0.9-2.5-2
	c-0.1-0.2-0.3-0.4-0.6-0.4c-0.7,0.1-1.3,0-1.9-0.2C-105.8,360.3-107.2,358.4-107.2,356.2z M-94.5,353.7c0,1,0.8,1.8,1.8,1.8
	s1.8-0.8,1.8-1.8s-0.8-1.8-1.8-1.8S-94.5,352.7-94.5,353.7z M-97.5,356.9c0,0.8,0.6,1.4,1.4,1.4s1.4-0.6,1.4-1.4
	c0-0.8-0.6-1.4-1.4-1.4S-97.5,356.2-97.5,356.9z M-96.1,357.3c0.2,0,0.4-0.2,0.4-0.4s-0.2-0.4-0.4-0.4c-0.2,0-0.4,0.2-0.4,0.4
	S-96.3,357.3-96.1,357.3z"/>
<path d="M-131.4,425.9h9.5V409h-9.5C-131.4,409-131.4,425.9-131.4,425.9z M-128.4,412.4h3.3v1.5h-3.3V412.4z M-128.4,415.3h3.3v1.5
	h-3.3V415.3z M-128.4,418.3h3.3v1.5h-3.3V418.3z M-128.4,421.2h3.3v1.5h-3.3V421.2z"/>
<path d="M-70.9,358.5c-0.1,0.2-0.3,0.3-0.5,0.3c-0.2,0-0.4-0.1-0.4-0.3c-0.3-1.2-1.6-2.4-3.8-2.4c0,0,0,0,0,0
	c-1.7,0-3.1,1.1-3.6,2.6c-0.3,1-0.2,1.9,0.2,2.7c0.1,0.2,0,0.5-0.2,0.6c-0.9,0.7-1.4,1.9-1.2,3.1c0.3,1.6,1.8,2.9,3.5,2.7
	c0.1,0,0.2,0,0.3,0c0.2,0,0.3,0,0.5,0.1c0.1,0.1,0.2,0.3,0.2,0.4c-0.1,0.9,0.4,1.8,1.1,2.2c1.1,0.7,2.1,0.5,3.2-0.3
	c0.6-0.5,1.5-0.6,2.2-0.1c0.4,0.3,1.6,1.3,1.1,4h1.7c0-1.9,0.7-3,2.2-3.1c1-0.1,1.8-0.5,2.3-1.2c0.1-0.2,0.4-0.3,0.7-0.2
	c0.5,0.3,1,0.4,1.6,0.4c1.8,0,3.3-1.5,3.3-3.3c0-1.2-0.7-2.3-1.7-2.9c0,0,0,0,0,0c-0.3,0-0.5-0.3-0.4-0.6c0,0,0,0,0,0
	c0-0.1,0-0.2,0-0.4c0.1-1.8-1.1-3.5-2.8-4c-1.4-0.4-2.9-0.1-3.9,0.9c-0.2,0.2-0.4,0.2-0.6,0.1c-0.2-0.1-0.3-0.3-0.3-0.5
	c0-0.1,0-0.2,0-0.3c0-1.2-0.9-2.1-2.1-2.1C-70,356.9-70.5,357.8-70.9,358.5z M-68.1,361.6c0,1-0.8,1.7-1.7,1.7s-1.7-0.8-1.7-1.7
	c0-1,0.8-1.7,1.7-1.7S-68.1,360.6-68.1,361.6z M-70.5,361.6c0-0.4,0.3-0.7,0.7-0.7c0.4,0,0.7,0.3,0.7,0.7c0,0.4-0.3,0.7-0.7,0.7
	C-70.2,362.3-70.5,362-70.5,361.6z"/>
<circle cx="-125.4" cy="353" r="1.3"/>
<circle cx="-119.9" cy="354.9" r="1.7"/>
<path d="M-137.5,371.7c0.2,0,0.3,0.1,0.4,0.3c1,2.2,3.2,3.6,5.6,3.6c2.4,0,4.6-1.4,5.6-3.6c0.1-0.2,0.4-0.4,0.6-0.3
	c0.5,0.2,1,0.3,1.6,0.3c2.7,0,4.8-2.2,4.8-4.8c0-2.1-1.4-4-3.5-4.6c-0.1,0-0.2,0-0.3-0.1c-0.2,0-0.4-0.2-0.4-0.4c0,0,0-0.1,0-0.1
	c0,0,0,0,0,0l0,0c0,0,0,0,0,0l0,0l0,0v0l0,0v0v0c-0.2-1.5-1.5-2.6-3.1-2.6c-1.3,0-2.5,0.8-2.9,2c-0.1,0.2-0.2,0.3-0.4,0.3
	c-0.2,0-0.4,0-0.5-0.2c-0.9-1.2-2.3-1.9-3.8-1.9c-2.7,0-4.8,2.2-4.8,4.8c0,0.1,0,0.3,0,0.4c0,0.2-0.1,0.4-0.3,0.5
	c-1.1,0.6-1.8,1.7-1.8,3C-140.6,370.1-139.2,371.6-137.5,371.7z"/>
<path d="M-71.6,404.7h6.6l0.5,9.7h-7.6L-71.6,404.7z M-70,375l-0.1,2.7h3.6l-0.1-2.7H-70z M-70.7,388.3l-0.4,6.4c0,0,0,0,0,0l-0.5,9
	h6.5l-0.8-15.4C-66,388.3-70.7,388.3-70.7,388.3z M-70.7,387.3h4.6l-0.5-8.6h-3.7L-70.7,387.3z"/>
<path d="M-140.6,425.9h8.1v-10.4h-8.1V425.9z M-138.2,418.3h3.3v1.5h-3.3V418.3z M-138.2,421.2h3.3v1.5h-3.3V421.2z"/>
<polygon points="-121,397.4 -121,399.8 -99.7,399.8 -99.7,397.4 -110.3,394.6 "/>
<path d="M-121,425.9h21.3v-25.1H-121V425.9z M-109,406.5h3.3v1.5h-3.3V406.5z M-109,409.4h3.3v1.5h-3.3V409.4z M-109,412.4h3.3v1.5
	h-3.3V412.4z M-109,415.3h3.3v1.5h-3.3V415.3z M-109,418.3h3.3v1.5h-3.3V418.3z M-109,421.2h3.3v1.5h-3.3V421.2z M-114.8,406.5h3.3
	v1.5h-3.3V406.5z M-114.8,409.4h3.3v1.5h-3.3V409.4z M-114.8,412.4h3.3v1.5h-3.3V412.4z M-114.8,415.3h3.3v1.5h-3.3V415.3z
	 M-114.8,418.3h3.3v1.5h-3.3V418.3z M-114.8,421.2h3.3v1.5h-3.3V421.2z"/>
<path d="M-98.7,425.9H-59v-10.4h-39.7V425.9z M-67.3,418.3h3.3v1.5h-3.3V418.3z M-67.3,421.2h3.3v1.5h-3.3V421.2z M-72.6,418.3h3.3
	v1.5h-3.3V418.3z M-72.6,421.2h3.3v1.5h-3.3V421.2z M-77.8,418.3h3.3v1.5h-3.3V418.3z M-77.8,421.2h3.3v1.5h-3.3V421.2z
	 M-83.1,418.3h3.3v1.5h-3.3V418.3z M-83.1,421.2h3.3v1.5h-3.3V421.2z M-88.3,418.3h3.3v1.5h-3.3V418.3z M-88.3,421.2h3.3v1.5h-3.3
	V421.2z M-93.6,418.3h3.3v1.5h-3.3V418.3z M-93.6,421.2h3.3v1.5h-3.3V421.2z"/>
<path d="M-92.4,390.3c-0.6,0.6-1.3,1.1-2.2,1.4c-2.6,0.8-5.4-0.7-6.2-3.3c-0.4-1.4-0.2-2.8,0.6-4c0.1-0.1,0.2-0.3,0.2-0.4
	c0-0.3-0.2-0.5-0.5-0.5c-2.2,0-4.1-1.4-4.6-3.5c0-0.1-0.1-0.3-0.3-0.3c-0.1-0.1-0.3-0.1-0.4,0c-0.9,0.5-1.9,0.8-3,0.8
	c-3.4,0-6.1-2.7-6.1-6.1c0-2.2,1.1-4.1,3-5.3c0.1-0.1,0.2-0.2,0.2-0.3c0-0.1,0-0.3-0.1-0.4c-0.7-0.9-1-1.9-1-3c0-2.7,2.2-5,5-5
	c0.6,0,1.2,0.1,1.7,0.3c0.6,0.6,1.4,1,2.2,1.3c0.6,0.2,1.3,0.3,1.9,0.2c0.6,1.3,1.8,2.2,3.2,2.3c0.1,0,0.2,0,0.3,0
	c1.9,0,3.4-1.4,3.8-3.2c1.4,0.1,2.7-0.3,3.9-0.9c0.9,0.8,1.3,1.9,1.3,3.2c0,0.3-0.1,0.8-0.1,1.2h-1.9v1h0.6L-92.4,390.3z
	 M-69.9,351.1c-0.8-1.2-2-1.9-3.4-2.2c-2.3-0.4-4.5,0.7-5.6,2.7c-0.1,0.2-0.3,0.3-0.5,0.3c-0.2,0-0.4-0.2-0.4-0.4
	c-0.4-1.9-1.8-3.3-3.7-3.6c-1.6-0.3-3.7,0.6-5.1,2.1c0.2,0.2,0.3,0.5,0.5,0.8c2.1,0.3,3.8,2.2,3.8,4.4c0,1.6-0.8,3-2.2,3.8
	c0.3,1,0.5,2,0.5,3.1c0,0.8-0.2,1.8-0.4,2.7h2.1v1h-0.6l1.4,26.3c0.2,1,0.7,1.8,1.5,2.4c0.8,0.6,1.8,0.8,2.8,0.6
	c0.7-0.1,1.3-0.4,1.8-0.8c0.1-0.1,0.3-0.2,0.5-0.1c0.2,0,0.3,0.2,0.4,0.3c0.4,1.1,1.6,1.7,2.7,1.5c0.8-0.1,1.4-0.6,1.8-1.3l1.1-20.6
	h1.5c0.4-1.7,0-2.7-0.6-3.1c-0.3-0.2-0.8-0.2-1,0c-1.4,1.2-2.9,1.3-4.4,0.5c-0.9-0.5-1.5-1.5-1.6-2.6c-2.2,0.1-4.1-1.5-4.4-3.6
	c-0.2-1.4,0.3-2.8,1.3-3.8c-0.4-1-0.4-2-0.1-3.1c0.6-1.9,2.4-3.3,4.5-3.3c2.2,0,3.7,1,4.4,2.3c0.4-0.6,1.1-1.1,2.1-1.3
	c0-0.1,0.1-0.6,0.1-0.8C-68.8,353.7-69.1,352.3-69.9,351.1z M-56.1,384.4c-0.2-0.1-0.3-0.2-0.3-0.4c0-0.2,0.1-0.4,0.2-0.5
	c1.3-0.8,2.1-2.1,2.2-3.6c0.2-2.7-1.7-5-4.4-5.3c-0.1,0-0.3,0-0.4,0c-0.2,0-0.4-0.1-0.5-0.3c-0.5-1.2-1.5-2-2.8-2.1
	c-1.8-0.2-3.4,1.1-3.6,2.8c0,0.1-0.1,0.1-0.1,0.2l1.1,18.3c0.6,0.3,1.2,0.5,1.8,0.5c2.1,0.2,4.2-1,4.9-3c0-0.1,0.1-0.2,0.1-0.3
	c0.1-0.2,0.2-0.3,0.4-0.4c0,0,0.1,0,0.1,0c0,0,0,0,0,0l0,0h0l0,0h0h0l0,0h0l0,0c1.5-0.1,2.8-1.3,2.9-2.8
	C-54.3,386.2-55,384.9-56.1,384.4z"/>
<rect x="-144" y="426.9" width="88.3" height="1.9"/>
</svg>
