<?xml version="1.0" encoding="utf-8"?>
<!-- Generator: Adobe Illustrator 19.1.0, SVG Export Plug-In . SVG Version: 6.00 Build 0)  -->
<svg version="1.1" id="Layer_1" xmlns="http://www.w3.org/2000/svg" xmlns:xlink="http://www.w3.org/1999/xlink" x="0px" y="0px"
	 viewBox="-148.9 353.3 99.9 83.7" style="enable-background:new -148.9 353.3 99.9 83.7;" xml:space="preserve">
<g>
	<path d="M-55.5,357.8l-0.1-2.2l1.3-0.1c2.7-0.1,4.4-0.2,5.4-0.3v-2c0,0-88,3.1-88,18.8c0,15.7,33.6,33.7,33.4,42.7
		c-0.2,12.2-34.2,18.2-45.4,22.2h44.5c1.3-1,2.8-1.6,4.5-2.6l1-0.5l1.1,2l-1,0.4c-0.5,0.3-1,0.7-1.5,0.7h31.3c0,0,15.6-9,15.2-22.4
		c-0.4-16.7-55.2-33.7-55-42.4C-108.4,363-49,360-49,360v-2.5c-1,0-2.7,0.1-5.3,0.2L-55.5,357.8z M-120,380.2l-0.6-0.9
		c-2-2.9-3-5.5-3-8c0-1.4,0.7-2.7,2.1-3.9l0.8-0.7l1.5,1.7l-0.8,0.7c-0.9,0.8-1.3,1.5-1.3,2.3c0,2,0.9,4.3,2.6,6.7l0.6,0.9
		L-120,380.2z M-81.6,426c-2.8,2.6-6.5,4.7-10,6.6l-1,0.5l-1.1-2l1-0.5c3.4-1.8,6.9-3.8,9.5-6.2l0.8-0.8l1.5,1.6L-81.6,426z
		 M-82.4,406.9l0.8,0.7c3.5,3,5.1,5.3,5.1,7.4c0,1.3-0.2,2.5-0.5,3.7l-0.3,1.1l-2.2-0.6l0.3-1.1c0.3-1,0.4-2,0.4-3.1
		c0-0.9-0.7-2.6-4.3-5.7l-0.8-0.7L-82.4,406.9z M-98.7,395.3l3.8,2.6c2.4,1.6,4.6,3.2,6.7,4.7l0.9,0.6l-1.3,1.8l-0.9-0.6
		c-2.1-1.5-4.3-3-6.7-4.7l-3.8-2.6L-98.7,395.3z M-104.4,391.2l0.9,0.7l-1.3,1.8l-0.9-0.7c-3.8-2.8-6.8-5.2-9.2-7.4l-0.8-0.8
		l1.5-1.6l0.8,0.8C-111.1,386.1-108.2,388.5-104.4,391.2z M-102,362.9c-4.5,0.9-8.2,1.8-11.2,2.8l-1.1,0.4l-0.7-2.1l1.1-0.4
		c3.1-1,6.9-2,11.5-2.9l1.1-0.2l0.4,2.2L-102,362.9z M-82.4,360c-4.1,0.5-8,1-11.6,1.5l-1.1,0.2l-0.3-2.2l1.1-0.2
		c3.6-0.5,7.5-1,11.7-1.5l1.1-0.1l0.2,2.2L-82.4,360z M-62.6,358.2c-4,0.3-7.9,0.6-11.7,0.9l-1.1,0.1l-0.2-2.2l1.1-0.1
		c3.8-0.3,7.7-0.7,11.7-0.9l1.1-0.1l0.2,2.2L-62.6,358.2z"/>
</g>
</svg>
