<?xml version="1.0" encoding="utf-8"?>
<!-- Generator: Adobe Illustrator 19.1.0, SVG Export Plug-In . SVG Version: 6.00 Build 0)  -->
<svg version="1.1" id="Layer_1" xmlns="http://www.w3.org/2000/svg" xmlns:xlink="http://www.w3.org/1999/xlink" x="0px" y="0px"
	 viewBox="-162.2 356.5 70.4 71.1" style="enable-background:new -162.2 356.5 70.4 71.1;" xml:space="preserve">
<path d="M-113.4,378l20.6-4.8c0.6-0.1,1-0.7,1-1.3v-1.1c0-0.7-0.6-1.3-1.3-1.3h-2.7c-0.1,0-0.3-0.1-0.3-0.3v-3.9
	c0-1-0.7-1.9-1.6-2.1c-1.2-0.2-2.3,0.8-2.3,2v4c0,0.1-0.1,0.3-0.3,0.3h-6.3c-0.1,0-0.3-0.1-0.3-0.3v-3.9c0-1-0.7-1.9-1.6-2.1
	c-1.2-0.2-2.3,0.8-2.3,2v4c0,0.1-0.1,0.3-0.3,0.3h-3.1c-0.7,0-1.2-0.5-1.3-1.2l-0.9-8.9c-0.2-1.7-1.5-2.9-3-2.9H-134
	c-1.5,0-2.8,1.2-3,2.9l-0.9,8.9c-0.1,0.7-0.6,1.2-1.3,1.2h-3.6c-0.1,0-0.3-0.1-0.3-0.3v-3.9c0-1-0.7-1.9-1.6-2.1
	c-1.2-0.2-2.3,0.8-2.3,2v4c0,0.1-0.1,0.3-0.3,0.3h-6.4c-0.1,0-0.3-0.1-0.3-0.3v-3.9c0-1-0.7-1.9-1.6-2.1c-1.2-0.1-2.3,0.8-2.3,2v4
	c0,0.1-0.1,0.3-0.3,0.3h-2.7c-0.7,0-1.3,0.6-1.3,1.3v1.1c0,0.6,0.4,1.1,1,1.3l21.2,4.9c0.6,0.1,1.1,0.8,1,1.4l-3.3,31.7
	c0,0.3-0.3,0.6-0.6,0.6h-15.4l0,0h-0.9c-1.7,0-3,1.4-3,3.3v9.2c0,1.8,1.3,3.3,3,3.3h64.3c1.7,0,3.1-1.5,3.1-3.4v-8.8
	c0-1.9-1.4-3.4-3.1-3.4H-95v-0.1h-15.5c-0.3,0-0.6-0.2-0.6-0.6l-3.3-31.8C-114.5,378.7-114,378.1-113.4,378z M-117.8,384.8l1.3,12.6
	c0.1,0.5-0.5,0.9-0.9,0.6l-14.1-6.9c-0.5-0.2-0.5-0.9,0-1.2l12.7-5.7C-118.3,384.1-117.9,384.4-117.8,384.8z M-120,363.6l1.4,13.1
	c0.1,0.5-0.6,0.9-1,0.6l-10.8-7.6c-0.4-0.3-0.4-0.8,0-1.1l9.4-5.5C-120.6,362.9-120.1,363.1-120,363.6z M-133.1,361
	c0-0.3,0.3-0.6,0.6-0.6h5.8c0.6,0,0.9,0.9,0.3,1.2l-6.2,3.6c-0.4,0.3-1-0.1-0.9-0.6L-133.1,361z M-134.4,372.9
	c0.1-0.5,0.6-0.7,1-0.5l11.3,8c0.4,0.3,0.3,0.9-0.1,1.1l-12.7,5.7c-0.4,0.2-0.9-0.2-0.9-0.6L-134.4,372.9z M-138.1,408.4l1.5-14.4
	c0-0.4,0.5-0.7,0.9-0.5l14.8,7.3c0.5,0.2,0.5,0.9,0,1.2l-16.3,7C-137.6,409.2-138.1,408.8-138.1,408.4z M-115.7,411.8h-14.8
	c-0.7,0-0.9-0.9-0.3-1.2l14.1-6.1c0.4-0.2,0.8,0.1,0.9,0.5l0.6,6.1C-115.1,411.4-115.4,411.8-115.7,411.8z"/>
</svg>
