<?xml version="1.0" encoding="utf-8"?>
<!-- Generator: Adobe Illustrator 19.1.0, SVG Export Plug-In . SVG Version: 6.00 Build 0)  -->
<svg version="1.1" id="Layer_1" xmlns="http://www.w3.org/2000/svg" xmlns:xlink="http://www.w3.org/1999/xlink" x="0px" y="0px"
	 viewBox="-143 351.8 80 74.3" style="enable-background:new -143 351.8 80 74.3;" xml:space="preserve">
<g>
	<polygon points="-135,403.1 -137.6,426.2 -68.4,426.2 -71,403.1 	"/>
	<path d="M-97.4,376.4c0-3.1-2.5-5.6-5.6-5.6c-3.1,0-5.6,2.5-5.6,5.6c0,3.1,2.5,5.6,5.6,5.6C-99.9,382-97.4,379.4-97.4,376.4z"/>
	<path d="M-143,351.8v36.5h26.3c0.1-0.4,0.2-0.7,0.3-0.9c0.5-3.1,7.5-4.7,10.2-5h0.5c-2.3-1-3.9-3.4-3.9-6c0-3.6,3-6.6,6.6-6.6
		c3.7,0,6.6,3,6.6,6.6c0,2.7-1.6,5-3.9,6l0.4,0c3.4,0.4,9.8,2,10.3,5c0,0.2,0.1,0.6,0.3,0.9h14.4v-2.6h7.3v2.6h4.6v-36.5H-143z"/>
	<path d="M-90.2,389c-0.2-0.6-0.3-1-0.4-1.4c-0.3-1.9-5.1-3.6-9.3-4.2l-6.3,0c-4.1,0.5-8.9,2.3-9.2,4.2c-0.1,0.4-0.2,0.9-0.4,1.4
		l-0.1,0.4v13.3h25.9v-13.3L-90.2,389z"/>
</g>
</svg>
