<?xml version="1.0" encoding="utf-8"?>
<!-- Generator: Adobe Illustrator 23.1.0, SVG Export Plug-In . SVG Version: 6.00 Build 0)  -->
<svg version="1.1" id="Layer_1" xmlns="http://www.w3.org/2000/svg" xmlns:xlink="http://www.w3.org/1999/xlink" x="0px" y="0px"
	 viewBox="0 0 50 48.6" style="enable-background:new 0 0 50 48.6;" xml:space="preserve">
<g>
	<path d="M13.3,15.1h0.1v-2.3h-0.2c-1.9,0.1-3.2,1.6-3.2,3.3l2.3-0.1C12.3,15.5,12.8,15.1,13.3,15.1z"/>
	<path d="M13.3,10.6V8.3h-0.2c-4.4,0.2-7.7,3.7-7.5,8l2.3-0.1c-0.1-3,2.3-5.6,5.3-5.7L13.3,10.6z"/>
	<path d="M13,3.9C6.1,4,0.8,9.8,1,16.5l2.3-0.1C3.1,10.9,7.5,6.2,13,6.1h0.3V3.8L13,3.9z"/>
	<rect x="7" y="40.7" width="3.6" height="6.4"/>
	<path d="M1,47.1h4.1v-8.3h7.3v8.3h4.1V26.7h-2v-4.5C15.4,21.8,16,21,16,20c0-1.3-1.1-2.4-2.4-2.4s-2.4,1.1-2.4,2.4
		c0,1,0.6,1.9,1.5,2.2v4.5H1V47.1z M3.9,29.5h9.8v1.9H3.9V29.5z M3.9,34.2h9.8V36H3.9V34.2z"/>
	<rect x="23.9" y="36.6" width="5.5" height="9.9"/>
	<path d="M18.5,47.1H22V34.8h9.2v12.3h3.6V2.9H18.5V47.1z M28.7,5.7H32v4.6h-3.3V5.7z M28.7,12.2H32v4.6h-3.3V12.2z M28.7,18.6H32
		v4.6h-3.3V18.6z M28.7,25.1H32v4.6h-3.3V25.1z M22.2,5.7h3.3v4.6h-3.3V5.7z M22.2,12.2h3.3v4.6h-3.3V12.2z M22.2,18.6h3.3v4.6h-3.3
		V18.6z M22.2,25.1h3.3v4.6h-3.3V25.1z"/>
	<rect x="41.1" y="40.5" width="3.6" height="6.6"/>
	<path d="M36.7,47.1h2.5v-8.4h7.3v8.4H49V18H36.7V47.1z M43.9,20.8h2.8v3.7h-2.8V20.8z M43.9,26.4h2.8v3.7h-2.8V26.4z M43.9,32.1
		h2.8v3.7h-2.8V32.1z M39,20.8h2.8v3.7H39V20.8z M39,26.4h2.8v3.7H39V26.4z M39,32.1h2.8v3.7H39V32.1z"/>
</g>
</svg>
