<?xml version="1.0" encoding="utf-8"?>
<!-- Generator: Adobe Illustrator 23.1.0, SVG Export Plug-In . SVG Version: 6.00 Build 0)  -->
<svg version="1.1" xmlns="http://www.w3.org/2000/svg" xmlns:xlink="http://www.w3.org/1999/xlink" x="0px" y="0px"
	 viewBox="0 0 100 99.1" style="enable-background:new 0 0 100 99.1;" xml:space="preserve">
<g id="Layer_2">
</g>
<g id="Layer_1">
	<g>
		<path d="M39.3,67.4c-1.6-2.7-4.4-6-7.2-9.2c-2.4-2.8-5-5.6-6.8-8.3C24,48,21.7,48,20,49c-2,1.2-3.5,4-1.3,8.1
			c1.1,2.2,3.8,5.2,6.7,8.2c0.2,0.2,0.3,0.4,0.5,0.6c0.7,0.7,0.5,1.9-0.3,2.4c-0.7,0.4-1.6,0.2-2.1-0.3c-0.2-0.2-0.3-0.3-0.5-0.5
			c-2.2-2.4-4.2-4.6-5.7-6.6c-0.6-0.8-1.1-1.6-1.5-2.4c-1.7-3.2-1.7-6.1-0.8-8.3c-1.5-3.2-2.8-6.3-3.4-8.3c-1.8-5.7-9.6-4.3-9.3,1.8
			s2.5,26.8,8.5,33.7c2.7,3.2,7.7,7.5,12.9,11.1C24.5,89.1,25,90,25,91v4.2c0,1.3,1,2.3,2.3,2.3H42c1.3,0,2.3-1,2.3-2.3
			c-0.1-2.5-0.2-6.7-0.4-10.3C43.4,77.4,41.1,70.4,39.3,67.4z"/>
		<path d="M88.3,41.9c-0.6,2-1.9,5-3.4,8.3c0.9,2.2,0.8,5.1-0.8,8.3c-0.4,0.8-0.9,1.6-1.5,2.4c-1.5,2-3.5,4.2-5.7,6.6
			c-0.1,0.2-0.3,0.3-0.5,0.5c-0.5,0.6-1.4,0.8-2.1,0.3c-0.8-0.5-1-1.7-0.3-2.4c0.2-0.2,0.3-0.4,0.5-0.6c2.8-3.1,5.5-6,6.7-8.2
			c2.1-4.2,0.7-6.9-1.3-8.1c-1.7-1-4-1-5.3,0.9c-1.8,2.7-4.3,5.6-6.8,8.3c-2.8,3.2-5.6,6.5-7.2,9.2c-1.8,3-4.1,10-4.5,17.5
			c-0.2,3.6-0.3,7.8-0.4,10.3c0,1.3,1,2.3,2.3,2.3h14.7c1.3,0,2.3-1,2.3-2.3V91c0-1,0.5-1.9,1.3-2.5c5.2-3.6,10.1-7.9,12.9-11.1
			c6-7,8.2-27.6,8.5-33.7C97.9,37.6,90.1,36.2,88.3,41.9z"/>
		<path d="M69.1,32.1c0-11.3-13-24.7-17.6-29c-0.9-0.8-2.3-0.8-3.1,0c-4.6,4.4-17.6,17.7-17.6,29c0,13.7,9.9,19,19.1,19
			S69.1,45.8,69.1,32.1z M50.4,44.9c-6.5,0-13.1-4.8-13.1-13.8c0-1.1,0.9-2,2-2s2,0.9,2,2c0,6.8,4.7,9.8,9.1,9.8c1.1,0,2,0.9,2,2
			S51.5,44.9,50.4,44.9z"/>
	</g>
</g>
</svg>
