<?xml version="1.0" encoding="utf-8"?>
<!-- Generator: Adobe Illustrator 19.1.0, SVG Export Plug-In . SVG Version: 6.00 Build 0)  -->
<svg version="1.1"
	 id="Layer_1" xmlns:inkscape="http://www.inkscape.org/namespaces/inkscape" xmlns:sodipodi="http://sodipodi.sourceforge.net/DTD/sodipodi-0.dtd" xmlns:dc="http://purl.org/dc/elements/1.1/" xmlns:cc="http://creativecommons.org/ns#" xmlns:svg="http://www.w3.org/2000/svg" xmlns:rdf="http://www.w3.org/1999/02/22-rdf-syntax-ns#"
	 xmlns="http://www.w3.org/2000/svg" xmlns:xlink="http://www.w3.org/1999/xlink" x="0px" y="0px" viewBox="-144 343 90 90"
	 style="enable-background:new -144 343 90 90;" xml:space="preserve">
<g transform="translate(0,-952.36218)">
	<path d="M-113,1295.4c3.2,0,6.2,1.7,7.9,4.5c4.6-1.1,9.1,2.3,9.1,6.5c0,2.2-1.1,4-2.4,5.1c-1.3,1.2-2.9,1.9-4.6,1.9h-12
		c-2.4,0-4.2-1.6-5.3-3.3s-1.7-3.7-1.7-5.7c0-2.2,1-4.3,2.5-6C-117.9,1296.7-115.7,1295.4-113,1295.4z M-71.9,1296.7l17,11
		c0.6,0.4,0.9,1,0.9,1.7c0,24.7,0,49.3,0,74c0,1-1,2-2,2h-86c-1,0-2-1-2-2c0-22.3,0-44.7,0-67c0-1.1,1.1-2.2,2.2-2
		c1,0.1,1.8,1,1.8,2v3.7c2.6-0.3,5.2-0.6,8-0.8v-2.9c0-1.1,1.1-2.2,2.2-2c1,0.1,1.8,1,1.8,2v2.5c2.6-0.2,5.3-0.4,8-0.6v-1.9
		c0-1.1,1.1-2.2,2.2-2c1,0.1,1.8,1,1.8,2v1.7c2-0.1,4-0.2,6-0.3v-1.4c0-1.1,1.1-2.2,2.2-2c1,0.1,1.8,1,1.8,2v1.3c2-0.1,4-0.1,6-0.2
		v-1.1c0-1.1,1.1-2.2,2.2-2c1,0.1,1.8,1,1.8,2v1c1.4,0,2.7,0,4,0v-8c0-0.7,0.3-1.3,0.9-1.7l17-11
		C-73.2,1296.2-72.7,1296.3-71.9,1296.7z M-134,1296.4v4h-2v-4H-134z M-130.1,1298l1.4,1.4l-2.8,2.8l-1.4-1.4L-130.1,1298z
		 M-139.9,1298l2.8,2.8l-1.4,1.4l-2.8-2.8L-139.9,1298z M-73,1300.7l-15,9.7v11.8c1.7-0.2,3.3-0.3,5-0.4v-10.4c0-1,1-2,2-2
		c5.4,0,10.8,0,16.2,0c1,0.1,1.8,1,1.8,2v9.8c1.6,0,3.3,0,5,0.1v-10.9L-73,1300.7z M-135,1301.4c1.7,0,3,1.3,3,3c0,1.7-1.3,3-3,3
		s-3-1.3-3-3C-138,1302.7-136.7,1301.4-135,1301.4z M-127,1303.4v2h-4v-2H-127z M-139,1303.4v2h-4v-2H-139z M-131.5,1306.5l2.8,2.8
		l-1.4,1.4l-2.8-2.8L-131.5,1306.5z M-138.5,1306.5l1.4,1.4l-2.8,2.8l-1.4-1.4L-138.5,1306.5z M-134,1308.4v4h-2v-4H-134z
		 M-92,1321.4c-1.3,0-2.6,0-4,0v1.8c1.3-0.2,2.7-0.4,4-0.6V1321.4z M-100,1321.5c-2,0-4,0.1-6,0.2v3.6c2-0.5,4-0.9,6-1.3V1321.5z
		 M-110,1321.8c-2,0.1-4,0.2-6,0.3v5.9c2-0.6,4-1.2,6-1.7V1321.8z M-120,1322.3c-2.7,0.2-5.4,0.3-8,0.6v9.2c2.7-1.1,5.4-2,8-2.9
		V1322.3z M-132,1323.2c-2.8,0.3-5.5,0.6-8,0.9v13.1c2.7-1.2,5.4-2.4,8-3.5V1323.2z M-67.2,1325.3c-18.6,15.1-28.2,37.3-28.8,56.1
		h22c0.1-18.5,2.3-37.3,14.2-56C-62.3,1325.3-64.9,1325.3-67.2,1325.3L-67.2,1325.3z M-73.4,1325.3c-2.8,0.1-5.6,0.2-8.3,0.4
		c-15.4,13.6-36.2,32.7-38.2,55.6h19.9C-99.4,1362.6-90.5,1341-73.4,1325.3z M-88.6,1326.4c-3.8,0.4-7.6,1-11.3,1.7
		c-9,7.4-39.4,33.1-40.1,43.3v10h16.1C-120.9,1357.5-104.5,1340.6-88.6,1326.4z M-108.7,1330c-9.8,2.6-19.8,6.3-31.3,11.6v19.9
		C-131.8,1349.4-119.2,1338.9-108.7,1330z M-58,1330.1c-10,17-11.8,34-12,51.2h12V1330.1z"/>
</g>
</svg>
