<?xml version="1.0" encoding="utf-8"?>
<!-- Generator: Adobe Illustrator 23.1.0, SVG Export Plug-In . SVG Version: 6.00 Build 0)  -->
<svg version="1.1" id="Layer_1" xmlns="http://www.w3.org/2000/svg" xmlns:xlink="http://www.w3.org/1999/xlink" x="0px" y="0px"
	 viewBox="0 0 160 165" style="enable-background:new 0 0 160 165;" xml:space="preserve">
<g>
	<path d="M97.5,34.3c6.1,0,11.1-4.4,12.1-10.2H85.4C86.3,29.9,91.4,34.3,97.5,34.3z"/>
	<path d="M119.7,18.2h-10.1c-1-5.8-6-10.2-12.1-10.2s-11.1,4.4-12.1,10.2H74.9v4h44.8V18.2z"/>
	<path d="M55.8,46.8h1V63h4V46.8h1c4,0,7.2-3.2,7.2-7.1V22.2h-2h-2v17.6c0,1.7-1.4,3.1-3.2,3.1h-1V22.2h-2h-2v20.7h-1
		c-1.7,0-3.2-1.4-3.2-3.1V22.2h-2h-2v17.6C48.6,43.6,51.8,46.8,55.8,46.8z"/>
	<path d="M117.2,90.5c1.7,0,3.1-1.4,3.1-3V48.6c0-4.3-2.5-8-6.1-9.9v48.7C114.1,89.2,115.5,90.5,117.2,90.5z"/>
	<path d="M56.3,65c-1.7,0-3,1.4-3,3c0,1.7,1.4,3,3,3h13.9c3.2,0,6-2.1,6.8-5.1l3.9-13.5V39.1c-2.5,1.4-4.4,3.8-5.2,6.7l-4.6,17.3
		c-0.3,1.1-1.3,1.9-2.5,1.9H56.3z"/>
	<path d="M82.8,52.6L82.8,52.6v36.5l0,0c10.8,0.2,21,4,29.2,10.7V38c-1-0.3-2-0.4-3.1-0.4h-3.8v9.6H89.7v-9.6h-3.2
		c-1.3,0-2.5,0.2-3.7,0.6V52.6z"/>
	<path d="M56.7,73.1v23.4c1.3-0.8,2.6-1.6,4-2.3V73.1H56.7z"/>
	<path d="M49.8,107.4h64.4c0,0-0.1-0.1-0.2-0.1c-0.6-0.7-1.3-1.4-2-2c-7.8-7.5-18.3-11.8-29.3-12c-0.3,0-0.5,0-0.8,0h-0.5
		c-0.3,0-0.5,0-0.7,0C69,93.5,57.8,98.6,49.8,107.4z"/>
	<path d="M144.5,133.6c-0.4-3.6-2-6.9-4.6-9.5c-3.1-3.1-7.2-4.8-11.6-4.8c-4.2,0-8,1.6-10.9,4.2s-4.9,6.2-5.4,10.2h-9.8l18.6-24.2
		H43.5l11.4,24.2h-8l-17.2-37l-12.9-5.2l-1.5,3.7l11.4,4.6l17.7,37.8H56V152h8.8l11.8-14.4h9.7H99h17l0,0h12.8v-4H116
		c1-5.9,6.1-10.3,12.3-10.4c3.3,0,6.5,1.3,8.8,3.7c1.8,1.8,3,4.2,3.4,6.7c0.1,0.7,0.2,1.3,0.2,2s-0.1,1.4-0.2,2
		c-1,5.8-6.1,10.3-12.3,10.3c-1.7,0-3.3-0.3-4.8-0.9c-1.5-0.6-2.9-1.5-4-2.7c-0.8-0.8-1.5-1.7-2-2.7H113c0.8,2,2,3.9,3.6,5.5
		c3.1,3.1,7.2,4.8,11.7,4.8c4.2,0,8-1.6,10.9-4.1c2.9-2.6,4.9-6.2,5.4-10.2c0.1-0.7,0.1-1.3,0.1-2S144.6,134.3,144.5,133.6z M63,148
		h-3v-10.4h11.5L63,148z"/>
</g>
</svg>
