<?xml version="1.0" encoding="utf-8"?>
<!-- Generator: Adobe Illustrator 19.1.0, SVG Export Plug-In . SVG Version: 6.00 Build 0)  -->
<svg version="1.1"
	 id="Layer_1" xmlns:svg="http://www.w3.org/2000/svg" xmlns:sodipodi="http://sodipodi.sourceforge.net/DTD/sodipodi-0.dtd" xmlns:dc="http://purl.org/dc/elements/1.1/" xmlns:cc="http://creativecommons.org/ns#" xmlns:inkscape="http://www.inkscape.org/namespaces/inkscape" xmlns:rdf="http://www.w3.org/1999/02/22-rdf-syntax-ns#"
	 xmlns="http://www.w3.org/2000/svg" xmlns:xlink="http://www.w3.org/1999/xlink" x="0px" y="0px" viewBox="-182.8 392.6 18 18"
	 style="enable-background:new -182.8 392.6 18 18;" xml:space="preserve">
<path d="M-168,396.6c0,0.2-0.1,0.3-0.3,0.3c-0.2,0-0.3-0.1-0.3-0.3s0.1-0.3,0.3-0.3C-168.1,396.3-168,396.4-168,396.6 M-167.5,393.2
	c0,0.2-0.1,0.3-0.3,0.3s-0.3-0.1-0.3-0.3s0.1-0.3,0.3-0.3S-167.5,393-167.5,393.2 M-168.1,394.8c0,0.2-0.1,0.3-0.3,0.3
	c-0.2,0-0.3-0.1-0.3-0.3s0.1-0.3,0.3-0.3C-168.2,394.5-168.1,394.7-168.1,394.8 M-168.3,401c0,0.2-0.1,0.3-0.3,0.3s-0.3-0.1-0.3-0.3
	s0.1-0.3,0.3-0.3S-168.3,400.8-168.3,401 M-176.2,403.1c0,0.2-0.1,0.3-0.3,0.3c-0.2,0-0.3-0.1-0.3-0.3s0.1-0.3,0.3-0.3
	C-176.4,402.9-176.2,403-176.2,403.1 M-173,405.3c0,0.2-0.1,0.3-0.3,0.3c-0.2,0-0.3-0.1-0.3-0.3s0.1-0.3,0.3-0.3
	C-173.2,405-173,405.1-173,405.3 M-166.8,397.1c0,0.2-0.1,0.3-0.3,0.3c-0.2,0-0.3-0.1-0.3-0.3s0.1-0.3,0.3-0.3
	C-167,396.8-166.8,396.9-166.8,397.1 M-172.2,396.1c0,0.2-0.1,0.3-0.3,0.3c-0.2,0-0.3-0.1-0.3-0.3s0.1-0.3,0.3-0.3
	C-172.4,395.8-172.2,395.9-172.2,396.1 M-171.3,397.7c0,0.2-0.1,0.3-0.3,0.3c-0.2,0-0.3-0.1-0.3-0.3s0.1-0.3,0.3-0.3
	C-171.5,397.4-171.3,397.6-171.3,397.7 M-167.7,398.8c0,0.2-0.1,0.3-0.3,0.3s-0.3-0.1-0.3-0.3s0.1-0.3,0.3-0.3
	S-167.7,398.6-167.7,398.8 M-171.3,399.5c0,0.2-0.1,0.3-0.3,0.3c-0.2,0-0.3-0.1-0.3-0.3s0.1-0.3,0.3-0.3
	C-171.4,399.2-171.3,399.3-171.3,399.5 M-169.3,399c0,0.2-0.1,0.3-0.3,0.3c-0.2,0-0.3-0.1-0.3-0.3s0.1-0.3,0.3-0.3
	C-169.5,398.7-169.3,398.9-169.3,399 M-170.2,395.3c0,0.2-0.1,0.3-0.3,0.3c-0.2,0-0.3-0.1-0.3-0.3s0.1-0.3,0.3-0.3
	C-170.3,395-170.2,395.1-170.2,395.3 M-166.8,395.1c0,0.2-0.1,0.3-0.3,0.3c-0.2,0-0.3-0.1-0.3-0.3s0.1-0.3,0.3-0.3
	C-167,394.8-166.8,394.9-166.8,395.1 M-169.2,397.1c0,0.2-0.1,0.3-0.3,0.3c-0.2,0-0.3-0.1-0.3-0.3s0.1-0.3,0.3-0.3
	C-169.3,396.8-169.2,397-169.2,397.1 M-170.9,396.4c0,0.2-0.1,0.3-0.3,0.3s-0.3-0.1-0.3-0.3s0.1-0.3,0.3-0.3
	S-170.9,396.3-170.9,396.4 M-169.7,392.9c0,0.2-0.1,0.3-0.3,0.3c-0.2,0-0.3-0.1-0.3-0.3s0.1-0.3,0.3-0.3
	C-169.9,392.6-169.7,392.7-169.7,392.9 M-170.9,394.5c0,0.2-0.1,0.3-0.3,0.3c-0.2,0-0.3-0.1-0.3-0.3s0.1-0.3,0.3-0.3
	C-171,394.2-170.9,394.3-170.9,394.5 M-174.3,393.8c0.3,0.6,0.5,2.2,0.8,4c-0.3,0.6-0.7,2.9-1,5.5c0.1-3.4,0.2-6.7,0.1-7.7
	c0,0-0.8,2.9-1.4,6c-0.3-0.4-0.6-0.9-1-1.3c0,0,0.4,0.9,0.8,2.2c-0.2,1-0.3,2-0.4,2.8c-0.1,0.9-0.2,1.8-0.3,2.6
	c-0.2-10-2.2-11.7-2.2-11.7c0.8,2.5,0.8,5.3,0.7,6.7c0-0.1,0-0.1,0-0.2c-0.4-2.3-1.8-4.1-1.8-4.1c0.6,1.7,0.8,6,0.8,9.3
	c-0.8-5.1-3.7-10.9-3.7-10.9c2,4.2,2.4,10.5,2.5,13.6h12.5c0.5-3.1,1.5-7.9,3-8.9c0,0-2.4,1.5-3.6,6c0.6-4.1,1.5-9.3,2.5-10.9
	c0,0-2.2,2.9-3.6,8c0.4-3.3,0.9-6.4,0.9-6.4c-0.8,0.8-1.6,4.1-2.1,7.3c0.1-3.8,0.5-8.4,1.6-11.4c0,0-1.5,2-2.2,5.8
	c-0.1,0.6-0.2,1.4-0.3,2.4C-172,399.6-172.8,396.7-174.3,393.8 M-172.8,398.3c0.2,0,0.3,0.1,0.3,0.3s-0.1,0.3-0.3,0.3
	c-0.2,0-0.3-0.1-0.3-0.3S-173,398.3-172.8,398.3 M-173.4,398.5c0.2,1.3,0.3,2.6,0.4,3.7c0.1,1.5,0.1,3.4,0,5.2
	c-0.2-0.6-0.4-1.2-0.6-1.8C-173.5,402.7-173.4,399.8-173.4,398.5 M-175.5,402.1c0.2,0,0.3,0.1,0.3,0.3s-0.1,0.3-0.3,0.3
	c-0.2,0-0.3-0.1-0.3-0.3S-175.7,402.1-175.5,402.1 M-173.9,402.6c0.2,0,0.3,0.1,0.3,0.3s-0.1,0.3-0.3,0.3c-0.2,0-0.3-0.1-0.3-0.3
	S-174.1,402.6-173.9,402.6 M-171.4,404c0.2,0,0.3,0.1,0.3,0.3s-0.1,0.3-0.3,0.3c-0.2,0-0.3-0.1-0.3-0.3S-171.6,404-171.4,404
	 M-177.7,405.3c0.2,0,0.3,0.1,0.3,0.3s-0.1,0.3-0.3,0.3s-0.3-0.1-0.3-0.3S-177.8,405.3-177.7,405.3 M-175.3,405.4
	c0.2,0,0.3,0.1,0.3,0.3s-0.1,0.3-0.3,0.3s-0.3-0.1-0.3-0.3S-175.5,405.4-175.3,405.4 M-171.8,405.9c0.2,0,0.3,0.1,0.3,0.3
	s-0.1,0.3-0.3,0.3s-0.3-0.1-0.3-0.3S-171.9,405.9-171.8,405.9 M-172.7,407.2c0.2,0,0.3,0.1,0.3,0.3s-0.1,0.3-0.3,0.3
	c-0.2,0-0.3-0.1-0.3-0.3S-172.8,407.2-172.7,407.2 M-170.9,407.3c0.2,0,0.3,0.1,0.3,0.3c0,0.2-0.1,0.3-0.3,0.3s-0.3-0.1-0.3-0.3
	C-171.1,407.5-171,407.3-170.9,407.3 M-175.5,408.3c0.2,0,0.3,0.1,0.3,0.3c0,0.2-0.1,0.3-0.3,0.3c-0.2,0-0.3-0.1-0.3-0.3
	S-175.6,408.3-175.5,408.3 M-178.4,408.9c0.2,0,0.3,0.1,0.3,0.3s-0.1,0.3-0.3,0.3s-0.3-0.1-0.3-0.3S-178.6,408.9-178.4,408.9
	 M-172.5,409.4c0.2,0,0.3,0.1,0.3,0.3s-0.1,0.3-0.3,0.3s-0.3-0.1-0.3-0.3S-172.7,409.4-172.5,409.4 M-170.3,409.7
	c0.2,0,0.3,0.1,0.3,0.3c0,0.2-0.1,0.3-0.3,0.3c-0.2,0-0.3-0.1-0.3-0.3C-170.6,409.8-170.5,409.7-170.3,409.7 M-176,409.9
	c0.2,0,0.3,0.1,0.3,0.3c0,0.2-0.1,0.3-0.3,0.3s-0.3-0.1-0.3-0.3C-176.3,410-176.2,409.9-176,409.9"/>
</svg>
