<?xml version="1.0" encoding="utf-8"?>
<!-- Generator: Adobe Illustrator 23.1.0, SVG Export Plug-In . SVG Version: 6.00 Build 0)  -->
<svg version="1.1" id="Layer_1" xmlns="http://www.w3.org/2000/svg" xmlns:xlink="http://www.w3.org/1999/xlink" x="0px" y="0px"
	 viewBox="0 0 100 97.4" style="enable-background:new 0 0 100 97.4;" xml:space="preserve">
<style type="text/css">
	.st0{font-family:'SanomatSans-Regular';}
	.st1{font-size:42.5676px;}
</style>
<g>
	<g>
		<path d="M28,84.4l-2.2-12.2c-4.4,0.9-7.8,4.6-8.3,9.2l-0.9,12.2c-0.2,2.1,1.5,3.9,3.6,3.9h18.4c1.9,0,3.5-1.5,3.6-3.4l0.5-11
			c0-1.8,1.5-3.2,3.2-3.2h14.4c0.7,0,1.3-0.4,1.5-1l1.8-4.8c0.1-0.2,0.1-0.3,0.1-0.5c0-0.8-0.7-1.6-1.6-1.6H62V39.4
			c1.7-1.6,3.9-2.6,6.3-2.6c3.2,0,6.2,1.7,7.9,4.6c0.4,0.6,1.1,1,1.8,1c0.8,0.1,1.5-0.4,1.8-1.1c1.6-2.8,4.7-4.5,7.9-4.5
			c3,0,5.7,1.4,7.6,4c0.5,0.8,1.5,1.1,2.4,0.8s1.5-1.1,1.5-2c0.2-0.3,0.2-0.5,0.2-1C98.3,22,82.6,9.3,62.2,8V6
			c0-1.9-1.5-3.4-3.4-3.4S55.4,4.1,55.4,6v2C35,9.3,19.3,22,18.2,39c0,0.1,0,0.5,0,0.6c0,0.9,0.6,1.8,1.5,2c0.9,0.3,1.9,0,2.4-0.8
			c1.8-2.5,4.5-4,7.5-4c3.2,0,6.2,1.8,7.9,4.6c0.4,0.7,1.1,1.1,1.9,1.1c0.8,0,1.5-0.4,1.9-1.1c1.6-2.8,4.7-4.6,7.9-4.6
			c2.4,0,4.6,1,6.3,2.6v32.4H39.8L35,84"/>
		<circle cx="32.8" cy="59.1" r="10.6"/>
	</g>
	<text transform="matrix(1 0 0 1 70.1738 85.7218)" class="st0 st1">₹</text>
</g>
<path d="M8.1,83h0.9v14h3.5V83h0.9c3.5,0,6.2-2.8,6.2-6.1V61.8h-1.7H16V77c0,1.5-1.2,2.7-2.8,2.7h-0.9V61.8h-1.7H8.9v17.9H8.1
	c-1.5,0-2.8-1.2-2.8-2.7V61.8H3.6H1.8V77C1.8,80.3,4.6,83,8.1,83z"/>
<path d="M51.7,53.5H43c-0.9-5-5.2-8.8-10.5-8.8s-9.6,3.8-10.5,8.8H13V57h38.7V53.5z"/>
</svg>
