<?xml version="1.0" encoding="utf-8"?>
<!-- Generator: Adobe Illustrator 23.1.0, SVG Export Plug-In . SVG Version: 6.00 Build 0)  -->
<svg version="1.1" id="Layer_1" xmlns="http://www.w3.org/2000/svg" xmlns:xlink="http://www.w3.org/1999/xlink" x="0px" y="0px"
	 viewBox="0 0 64 64.4" style="enable-background:new 0 0 64 64.4;" xml:space="preserve">
<title>Glyph - Compound Path</title>
<g>
	<path d="M31,39h2c1.3,0,2.4,0.8,2.8,2h-7.7C28.6,39.8,29.7,39,31,39z M28,31h0.9c-0.5-2.3-2.5-4-4.9-4h-0.9
		C23.6,29.3,25.6,31,28,31z M40.9,23H40c-2.4,0-4.4,1.7-4.9,4H36C38.4,27,40.4,25.3,40.9,23z M51.6,54.2c1,2,0.2,4.4-1.8,5.4
		c-1.4,0.7-3.1,0.5-4.3-0.5c-4.5,0.7-9,1-13.5,0.9c-4.5,0.1-9-0.2-13.5-0.9c-1.7,1.4-4.2,1.1-5.6-0.6c-1-1.2-1.2-2.9-0.5-4.3
		C10.9,50.2,10,41.6,10,32s0.9-18.2,2.4-22.2c-1-2-0.2-4.4,1.8-5.4c1.4-0.7,3.1-0.5,4.3,0.5c4.5-0.7,9-1,13.5-0.9
		c4.5-0.1,9,0.2,13.5,0.9c1.7-1.4,4.2-1.1,5.6,0.6c1,1.2,1.2,2.9,0.5,4.3c1.5,4,2.4,12.6,2.4,22.2S53.1,50.2,51.6,54.2z M47,14
		c0-0.6-0.4-1-1-1H18c-0.6,0-1,0.4-1,1v36c0,0.6,0.4,1,1,1h28c0.6,0,1-0.4,1-1V14z M19,15h26v34H19V15z M21,26c0,3.9,3.1,7,7,7h1.5
		c0.8,1.2,1.3,2.6,1.4,4c-2.7,0-4.9,2.3-4.9,5c0,0.6,0.4,1,1,1h10c0.6,0,1-0.4,1-1c0-2.8-2.2-5-5-5c0.1-2.7,0.6-5.4,1.6-8H36
		c3.9,0,7-3.1,7-7c0-0.6-0.4-1-1-1h-2c-3.8,0-6.9,3-7,6.8c-0.7,1.5-1.1,3.1-1.5,4.7c-0.2-0.3-0.4-0.6-0.6-0.8
		c-0.2-3.7-3.3-6.6-7-6.6h-2C21.4,25,21,25.4,21,26z"/>
</g>
</svg>
