<?xml version="1.0" encoding="utf-8"?>
<!-- Generator: Adobe Illustrator 19.1.0, SVG Export Plug-In . SVG Version: 6.00 Build 0)  -->
<svg version="1.1" id="Layer_1" xmlns="http://www.w3.org/2000/svg" xmlns:xlink="http://www.w3.org/1999/xlink" x="0px" y="0px"
	 viewBox="-135.3 354.8 72.7 66.4" style="enable-background:new -135.3 354.8 72.7 66.4;" xml:space="preserve">
<g>
	<g>
		<path d="M-79.2,390.3l-2.1-1.6l-2.9-10.9l-2.9,10.9l-2,1.6h-7.3l-4.6,16.7h-4l-7.8-29.2l-2.9,10.9l-2,1.6h-14
			C-123,409-99,421.2-99,421.2s24-12.1,32.7-30.8C-66.3,390.3-79.2,390.3-79.2,390.3z M-119.3,386.2l4.5-16.8h4l7.8,29.3l2.9-10.9
			l2-1.6h7.4l4.5-16.8h4.1l4.5,16.8h13c1-2.9,1.5-6,1.5-9.2c0-12-9.2-21.6-20.6-21.6c-6,0-11.4,2.6-15.2,6.9
			c-3.8-4.2-9.1-6.9-15.2-6.9c-11.4,0-20.7,9.6-20.7,21.6c0,3.2,0.6,6.3,1.6,9.2C-133.3,386.2-119.3,386.2-119.3,386.2z"/>
	</g>
	<g>
		<path d="M-130.9,390.8c8.3,17,29.6,28.5,32,29.8c2.4-1.3,23.6-12.8,31.9-29.8h-12.3l-2.3-1.8l-2.5-9.2l-2.5,9.2l-2.3,1.8h-7.1
			l-4.6,16.7h-4.7l-7.4-27.8l-2.5,9.2l-2.2,1.8L-130.9,390.8L-130.9,390.8z M-103,400.5l-8.2-30.7h-3.2l-4.5,16.8h-14.7l-0.1-0.3
			c-1.1-3.3-1.6-6.4-1.6-9.4c0-12.2,9.5-22.1,21.2-22.1c5.8,0,11.2,2.4,15.2,6.6c4-4.3,9.4-6.6,15.2-6.6c11.6,0,21.1,9.9,21.1,22.1
			c0,3.2-0.5,6.3-1.5,9.4l-0.1,0.3H-78l-4.5-16.8h-3.3l-4.5,16.8h-7.6l-1.7,1.3L-103,400.5z"/>
	</g>
</g>
</svg>
