<?xml version="1.0" encoding="utf-8"?>
<!-- Generator: Adobe Illustrator 23.1.0, SVG Export Plug-In . SVG Version: 6.00 Build 0)  -->
<svg version="1.1" id="Layer_1" xmlns="http://www.w3.org/2000/svg" xmlns:xlink="http://www.w3.org/1999/xlink" x="0px" y="0px"
	 viewBox="0 0 40.5 43" style="enable-background:new 0 0 40.5 43;" xml:space="preserve">
<style type="text/css">
	.st0{fill:#FFFFFF;}
	.st1{font-family:'SanomatSans-Regular';}
	.st2{font-size:12px;}
</style>
<path d="M33.6,21c-0.5-3.8-6-9.8-6-9.8h-2.9h-2.9c0,0-5.5,6-6,9.8c-0.4,2.5,0.4,5.4,3,5.4s5.8,0,5.8,0s3.2,0,5.8,0
	S33.9,23.5,33.6,21z"/>
<path d="M30.3,32.5c0,0,2.4-1.6,2-2.6c-0.4-1-2.8-0.2-5.3,1.3c0,0,1.7,5.6-8.3,3.1c0,0,5.7-0.1,6.6-0.9c0.9-0.8,0.8-2.7-3.1-2.7
	c-2.9,0-4.2-2.8-6.8-3.2C13,27,9.2,28.6,3.5,32.8l4.3,4.3c0,0,2.9,0,3.6,0s5.1,1.5,9.4,2.3c2.9,0.6,12.3-5.3,14.1-6.6
	C36.7,31.5,33.9,30.1,30.3,32.5z"/>
<text transform="matrix(1 0 0 1 21.5419 22.9978)" class="st0 st1 st2">₹</text>
<path d="M19.3,8.5c2.2,1.4,2.6,1.9,2.6,1.9h2.7h2.7c0,0,0.3-0.5,2.6-1.9c3-1.8,3-2.4,2.1-2.8c-2.7-1.2-3.2,0.4-4,1.3
	c-0.6,0.7-1.5,0.8-1.2,0c1.3-3-0.7-3.5-2.2-3.5S21.2,4,22.5,6.9c0.3,0.8-0.5,0.7-1.2,0c-0.8-0.9-1.4-2.5-4-1.3
	C16.3,6.1,16.3,6.7,19.3,8.5z"/>
</svg>
