<?xml version="1.0" encoding="utf-8"?>
<!-- Generator: Adobe Illustrator 19.1.0, SVG Export Plug-In . SVG Version: 6.00 Build 0)  -->
<svg version="1.1"
	 id="Layer_1" xmlns:svg="http://www.w3.org/2000/svg" xmlns:sodipodi="http://sodipodi.sourceforge.net/DTD/sodipodi-0.dtd" xmlns:dc="http://purl.org/dc/elements/1.1/" xmlns:cc="http://creativecommons.org/ns#" xmlns:inkscape="http://www.inkscape.org/namespaces/inkscape" xmlns:rdf="http://www.w3.org/1999/02/22-rdf-syntax-ns#"
	 xmlns="http://www.w3.org/2000/svg" xmlns:xlink="http://www.w3.org/1999/xlink" x="0px" y="0px" viewBox="-138 345 78 86"
	 style="enable-background:new -138 345 78 86;" xml:space="preserve">
<g transform="translate(0,-952.36218)">
	<path d="M-69.3,1297.6c-1.2-0.5-2.6-0.2-3.5,0.7c-3,3.2-7.2,5.8-10.7,11.5c-6.4,4.4-10.9,10-14.9,16.5l-3.7,0.2l2.7-4.7
		c0.3-0.5,0.1-1.3-0.5-1.5c-0.5-0.2-1.1,0-1.3,0.5l-3.4,5.9l-4.9,0.3l1.7-2.9c0.3-0.5,0.1-1.3-0.5-1.5c-0.5-0.2-1.1,0-1.3,0.5
		l-2.3,4l-19.5,1.2l2.5-4.4c0.3-0.5,0.1-1.3-0.5-1.5c-0.5-0.2-1.1,0-1.3,0.5c-2.4,4.1-4.7,8.2-7.1,12.4c-0.8,1.5-0.2,3.6,1.3,4.3
		l25.6,12.4l-1,2l-10.5,1.7c-0.9,0.1-1.7,0.7-2.2,1.5l-3.6,6.2c-0.5,0.9-0.5,2.1,0,3c0.5,0.9,1.5,1.5,2.5,1.6
		c3.7,0.1,8.5,0.6,12.1,0.6c0.8,0.7,1.6,1.3,2.5,1.8c0.9,0.5,1.8,1,2.8,1.3c2,3.3,4.3,6.9,6.5,10.3c0.6,0.9,1.6,1.4,2.6,1.4
		c1,0,2-0.6,2.6-1.5l3.6-6.2c0.5-0.8,0.5-1.8,0.2-2.7l-3.8-10l1.3-1.9l23.5,16c1.4,0.9,3.5,0.4,4.4-1c2.4-4.1,4.8-8.2,7.2-12.4
		c0.3-0.5,0.1-1.3-0.5-1.5c-0.5-0.2-1.1,0-1.3,0.5l-2.6,4.4l-8.7-17.5l2.3-4.1c0.3-0.5,0.1-1.3-0.5-1.5c-0.5-0.2-1.1,0-1.3,0.5
		l-1.7,2.9l-2.2-4.4l3.4-5.9c0.3-0.5,0.1-1.3-0.5-1.5c-0.5-0.2-1.1,0-1.3,0.5l-2.7,4.7l-1.7-3.3c3.7-6.7,6.2-13.4,6.8-21.2
		c3.2-6,3.1-11,4.5-14.9C-67.2,1300-68,1298.2-69.3,1297.6L-69.3,1297.6z M-80.3,1315l2,1.1c-0.4,6.4-3,13.2-6.8,19.7l-17.7,25.6
		l-4.5-2.6l13.3-28C-90.2,1324.2-85.5,1318.5-80.3,1315z M-82.4,1321c-2-0.8-3.2,0.6-4.3,2c-0.9,1.2-1.9,2.7-2.9,4.5
		c-1,1.8-1.9,3.4-2.4,4.8c-0.7,1.7-1,3.8,0.5,4.7c2,0.8,3.2-0.7,4.3-2c0.9-1.2,1.9-2.7,2.9-4.5c1-1.8,1.9-3.5,2.5-4.8
		C-81.3,1324-80.9,1321.9-82.4,1321z M-97.9,1347.6c-0.5-0.2-1.1,0-1.3,0.5l-5.7,9.8c-0.3,0.5-0.1,1.1,0.4,1.4
		c0.5,0.3,1.1,0.1,1.4-0.4l5.7-9.8C-97.2,1348.6-97.4,1347.8-97.9,1347.6L-97.9,1347.6z M-108.2,1360.8l4.2,2.4
		c-0.7,1.2-1.7,2.4-1.9,2.6c-0.5-0.1-1.1-0.1-2-0.7c-0.9-0.5-1.3-1-1.5-1.4C-109.3,1363.3-108.8,1362-108.2,1360.8L-108.2,1360.8z"
		/>
</g>
</svg>
