<?xml version="1.0" encoding="utf-8"?>
<!-- Generator: Adobe Illustrator 19.1.0, SVG Export Plug-In . SVG Version: 6.00 Build 0)  -->
<svg version="1.1" id="Layer_1" xmlns="http://www.w3.org/2000/svg" xmlns:xlink="http://www.w3.org/1999/xlink" x="0px" y="0px"
	 viewBox="-175 371 48 48" style="enable-background:new -175 371 48 48;" xml:space="preserve">
<g>
	<path d="M-138.9,411.8c0.3-0.2,0.5-0.4,0.8-0.6c0.9-0.9,1.3-2.1,1.3-3.4l-0.8-18.9c-0.1-2.6-2.3-4.8-4.8-4.8h-17.1
		c-2.6,0-4.7,2.1-4.8,4.8l-0.8,18.9c-0.1,1.3,0.4,2.5,1.3,3.4c0.2,0.2,0.5,0.5,0.8,0.6l-5.4,4.6c-0.6,0.5-0.7,1.5-0.2,2.1
		c0.3,0.3,0.7,0.5,1.1,0.5c0.3,0,0.7-0.1,0.9-0.4l0.9-0.8h29.3l0.9,0.8c0.3,0.2,0.6,0.4,1,0.4c0.4,0,0.8-0.2,1.1-0.5
		c0.5-0.6,0.5-1.5-0.2-2.1L-138.9,411.8z M-159.2,391.5c0-1,0.8-1.8,1.7-1.8h12.9c0.9,0,1.7,0.8,1.7,1.8v7.3c0,1-0.8,1.8-1.7,1.8
		h-12.9c-0.9,0-1.7-0.8-1.7-1.8V391.5z M-162.2,414.9l2.8-2.4h16.8l2.8,2.4H-162.2z"/>
	<path d="M-151,371c-13.2,0-24,11.1-24,24.7c0,5.4,1.8,10.7,5,15h3.5c-0.4-0.9-0.6-2-0.6-3.1l0.8-18.9c0.2-3.7,3.2-6.7,6.8-6.7h17.1
		c3.6,0,6.6,3,6.8,6.7l0.8,18.9c0,1.1-0.2,2.1-0.6,3.1h3.5c3.2-4.3,5-9.6,5-15C-127,382.1-137.8,371-151,371z"/>
</g>
</svg>
