<?xml version="1.0" encoding="utf-8"?>
<!-- Generator: Adobe Illustrator 19.1.0, SVG Export Plug-In . SVG Version: 6.00 Build 0)  -->
<svg version="1.1" id="Layer_1" xmlns="http://www.w3.org/2000/svg" xmlns:xlink="http://www.w3.org/1999/xlink" x="0px" y="0px"
	 viewBox="-132.6 344.9 67.3 89" style="enable-background:new -132.6 344.9 67.3 89;" xml:space="preserve">
<style type="text/css">
	.st0{fill:none;}
</style>
<g>
	<path class="st0" d="M-117.2,359.9c0,0.2,0.1,0.4,0.2,0.5c0.2,0.1,0.4,0.1,0.6-0.1c0.1-0.1,0.2-0.3,0.4-0.4c0.1,0,0.2,0,0.3,0
		c0.5-0.1,0.9-0.4,1.2-0.8c0.1-0.2,0.2-0.3,0.3-0.5c0.1,0.2,0.2,0.4,0.3,0.5c0.3,0.4,0.6,0.7,1.2,0.8c0.1,0,0.2,0,0.3,0
		c0.1,0.1,0.3,0.2,0.4,0.4c0.2,0.2,0.4,0.2,0.6,0.1c0.1-0.1,0.1-0.3,0.2-0.5c0-0.1,0-0.3,0-0.4c0,0,0,0,0,0c0-0.4,0-0.9-0.1-1.3
		c-0.2-1-1.1-1.7-2-1.5c-0.1,0-0.6,0.2-0.8,0.3c-0.2-0.1-0.6-0.3-0.8-0.3c-0.9-0.1-1.8,0.6-2,1.5c-0.1,0.4,0,0.9-0.1,1.3
		c0,0,0,0,0,0C-117.2,359.6-117.2,359.8-117.2,359.9z"/>
	<path d="M-65.7,381.2c0.4-0.5,0.5-1.1,0.3-1.7c0,0,0,0,0,0c-1.5-6-11-9.8-12.2-9.9c-1-0.5-2-0.7-3.2-0.7c-1.1,0-2.2,0.3-3.1,0.7
		c-0.8,0-7.7,2.7-10.8,7c-0.2-0.1-0.4-0.2-0.7-0.4c-0.3,0.6-1.1,1.9-2.1,3.5c0.6,0.4,0.9,0.6,0.9,0.6c0.3,0.2,0.5,0.3,0.8,0.3
		c1.1,0.5,4.2-1,5.6-1.8c0.5-0.3,1.1-0.7,1.8-1.2c0.1,1.2,0.5,2.3,1.1,3.3c0.1,0.7,0.2,1.3,0.2,2c0,1.2-0.3,2.7-0.6,3.7c0,0,0,0,0,0
		c-0.1,0.2-0.2,0.3-0.2,0.5c0,0,0,0,0,0c-0.4,1-1.8,4.9-2.4,9.9l0,0c0,0.2,0,0.4-0.1,0.7c0,0.3-0.1,0.5-0.1,0.8
		c-0.8,7.9-3.3,26.4-3.3,26.4c2,0.6,3.8,1,5.6,1.3c0.5,4.2,1.3,8,2.7,8c1.3,0,2.1-3.4,2.6-7.4c1.3,0.1,2.6,0,3.7,0
		c0.5,3.9,1.3,7.2,2.6,7.2c1.4,0,2.2-3.7,2.7-7.8c3.7-0.7,5.8-1.8,5.8-1.8s-2.9-22.4-3.7-29.1c-0.3-2.3-0.8-4.3-1.2-5.8
		C-70.7,388.2-65.7,381.2-65.7,381.2z M-81.8,371.7c-0.6,0-1.2-0.5-1.2-1.2c0-0.5,0.3-0.9,0.7-1.1c0,0.1-0.1,0.2-0.1,0.4
		c0,0.8,0.6,1.4,1.4,1.4C-81.1,371.6-81.4,371.7-81.8,371.7z M-79.9,371.7c-0.4,0-0.7-0.2-0.9-0.4c0.8,0,1.4-0.6,1.4-1.4
		c0-0.1,0-0.3-0.1-0.4c0.4,0.2,0.7,0.6,0.7,1.1C-78.8,371.2-79.3,371.7-79.9,371.7z M-73.7,386.8c-0.1-0.3-0.3-0.5-0.4-0.8
		c-0.3-1-0.5-2.1-0.5-3.2c0-0.6,0.1-1.2,0.1-1.7c0.7-1,1.2-2.3,1.3-3.6c0.7,0.5,1.4,0.9,1.8,1.2c0.5,0.3,1.2,0.7,1.9,1
		C-70.5,381.2-72.7,384.5-73.7,386.8z"/>
	<path d="M-81,352.3c1.1,0,2.1,0.2,3,0.7c0-0.1,0-0.3,0-0.4c0-1.7-1.4-3.1-3.1-3.1s-3.1,1.4-3.1,3.1c0,0.1,0,0.3,0,0.4
		C-83.1,352.6-82.1,352.3-81,352.3z"/>
	<path class="st0" d="M-107,370.6l2.1,9.2c0.1,0.2,0.1,0.4,0.1,0.7c0,0.1,0.1,0.3,0.1,0.4c0,0.1,0,0.1,0,0.2l0,0.2l0,0
		c0,0.1,0,0.3,0.1,0.4c0,0,0,0.1,0,0.1c0,0.3,0.1,0.6,0.1,0.9c0,0,0,0,0,0.1c1.2-3.3,3.5-7.6,4.2-8.9c-0.8-0.3-1.5-0.6-2-0.8
		C-103.5,372.5-105.6,371.4-107,370.6z M-102.2,376.2c-2.1-1.7-4-3.5-3.5-4.2c0,0,0,0,0,0c1.1,0.6,2.3,1.2,3,1.6
		c0.4,0.2,1,0.4,1.5,0.6C-101.5,374.9-101.8,375.5-102.2,376.2z"/>
	<path class="st0" d="M-115.9,364.9l0.9-0.3c0.1,0,0.1-0.1,0.1-0.3v-0.2c0-0.1-0.1-0.2-0.1-0.3l-0.9-0.3c-0.3-0.1-0.7,0-0.7,0.4v0.5
		C-116.7,364.9-116.3,365.1-115.9,364.9z"/>
	<circle class="st0" cx="-114.3" cy="364.3" r="0.5"/>
	<path class="st0" d="M-74.5,381.1c-0.1,0.6-0.1,1.1-0.1,1.7c0,1.1,0.2,2.2,0.5,3.2c0.2,0.2,0.3,0.5,0.4,0.8c1-2.3,3.2-5.6,4.3-7.1
		c-0.8-0.3-1.5-0.7-1.9-1c-0.5-0.3-1.1-0.7-1.8-1.2C-73.3,378.8-73.8,380.1-74.5,381.1z"/>
	<path class="st0" d="M-112.7,364.9c0.3,0.1,0.7,0,0.7-0.4V364c0-0.4-0.4-0.5-0.7-0.4l-0.9,0.3c-0.1,0-0.1,0.1-0.1,0.3v0.2
		c0,0.1,0.1,0.2,0.1,0.3L-112.7,364.9z"/>
	<path d="M-126.8,397.1c0.4,0.4,0.6,1,0.6,1.6h1.2c0-1.2-0.6-2.2-1.4-2.9C-126.5,396.2-126.7,396.7-126.8,397.1z"/>
	<path d="M-132.6,398.5L-132.6,398.5l0,0.1v0l0,0v34.8h1.2v-34.8h0c0-0.9,0.5-1.7,1.2-2.2c-0.1-0.4-0.2-0.8-0.3-1.2
		C-131.7,395.9-132.6,397.1-132.6,398.5z"/>
	<path d="M-105.6,371.9C-105.6,371.9-105.6,372-105.6,371.9c-0.5,0.8,1.3,2.6,3.4,4.3c0.3-0.7,0.7-1.3,1.1-2.1
		c-0.6-0.2-1.1-0.4-1.5-0.6C-103.3,373.1-104.5,372.5-105.6,371.9z"/>
	<path d="M-95.7,373.9c0-0.2,0-0.4-0.1-0.7c-1.5-4.1-6.6-7-10.4-8.4c-2.3-1.5-5.1-2.4-8.1-2.4c-4.9,0-9.2,2.3-11.9,5.9
		c-0.2,0.2-0.6,0.8-1.1,1.7c-0.1,0.1-0.1,0.2-0.2,0.3h0c-1.6,2.9-3.8,8.3-3.1,12.7c-0.1,0.2-0.1,0.5-0.1,0.8c0,0,0.2,14.1,2.5,14.1
		c2.3,0,2.4-14.2,2.4-14.2c0-0.5-0.2-0.9-0.4-1.3c0.4-0.8,0.7-1.5,0.9-2c0.6-1.7,3.5-9.2,3.7-10.1h0.3l-2.2,9.6c0,0.1,0,0.2-0.1,0.3
		c-0.1,0.2-0.1,0.4-0.1,0.6c0,0,0,0,0,0.1l0,0.2l0,0c0,0,0,0.1,0,0.1c0,0.2-0.1,0.4-0.1,0.6c0,0.1,0,0.2,0,0.2c0,0.2,0,0.4,0,0.6
		c0,2.1,0.7,4,1.8,5.6c0,0.2-0.1,0.4-0.1,0.7c-0.7,2.3-2,10.7,0.1,40.4c0,0,0.1,0.1,0.3,0.2v0.7c0,1.8,1.2,3.2,2.7,3.2h0
		c1.5,0,2.7-1.4,2.7-3.2v-0.5c0.2-0.1,0.4-0.2,0.6-0.3c0.5-13.5-0.5-29.1,1.8-34.7c0.5,1.2,0.8,2.8,1,4.7c0.1,1.3,0.1,2.4,0.2,3.3
		c0,0.4,0.1,1,0.2,1.6c0.3,7.2,0,16.6,0.4,25.2c0.1,0.1,0.3,0.2,0.4,0.2v0.6c0,1.8,1.2,3.2,2.7,3.2h0c1.5,0,2.7-1.4,2.7-3.2v-0.5
		c0.3-0.2,0.5-0.3,0.5-0.3c2.4-33.3,0.5-39.8-0.1-41c0.4-0.6,0.8-1.2,1.1-1.9c0.1,0.2,0.1,0.4,0.3,0.5c2,1.1,9.1-11.1,9.1-11.1
		C-95.6,375.2-95.5,374.6-95.7,373.9z M-113.7,364.2c0-0.1,0.1-0.2,0.1-0.3l0.9-0.3c0.3-0.1,0.7,0,0.7,0.4v0.5
		c0,0.4-0.4,0.5-0.7,0.4l-0.9-0.3c-0.1,0-0.1-0.2-0.1-0.3V364.2z M-114.3,363.7c0.3,0,0.5,0.2,0.5,0.5c0,0.3-0.2,0.5-0.5,0.5
		c-0.3,0-0.5-0.2-0.5-0.5C-114.9,364-114.6,363.7-114.3,363.7z M-116.7,364c0-0.4,0.4-0.5,0.7-0.4l0.9,0.3c0.1,0,0.1,0.1,0.1,0.3
		v0.2c0,0.1-0.1,0.2-0.1,0.3l-0.9,0.3c-0.3,0.1-0.7,0-0.7-0.4V364z M-104.5,382.7C-104.5,382.7-104.5,382.7-104.5,382.7
		c0-0.4,0-0.7-0.1-1c0,0,0-0.1,0-0.1c0-0.1,0-0.3-0.1-0.4l0,0l0-0.2c0-0.1,0-0.1,0-0.2c0-0.1-0.1-0.3-0.1-0.4c0-0.2-0.1-0.4-0.1-0.7
		l-2.1-9.2c1.5,0.8,3.6,1.9,4.7,2.5c0.5,0.2,1.2,0.5,2,0.8C-101,375.1-103.3,379.4-104.5,382.7z"/>
	<ellipse class="st0" cx="-83.9" cy="359.9" rx="1.9" ry="1.7"/>
	<ellipse class="st0" cx="-78.2" cy="359.9" rx="1.9" ry="1.7"/>
	<g>
		<ellipse cx="-78.2" cy="359.9" rx="1.9" ry="1.7"/>
		<ellipse cx="-83.9" cy="359.9" rx="1.9" ry="1.7"/>
		<path d="M-73.9,359.7c0-3.9-3.2-7.1-7.1-7.1s-7.1,3.2-7.1,7.1c0,1.1,0.3,2.2,0.8,3.2c0,0.1-0.1,0.2-0.1,0.3c0,0.3,0.2,0.5,0.4,0.6
			c-0.1,0.1-0.2,0.2-0.2,0.4c0,0.3,0.2,0.5,0.5,0.5c0.2,0,0.4-0.1,0.4-0.3c1.3,1.5,3.2,2.4,5.3,2.4s4-0.9,5.3-2.4
			c0.1,0.2,0.2,0.3,0.4,0.3c0.3,0,0.5-0.2,0.5-0.5c0-0.2-0.1-0.3-0.2-0.4c0.3-0.1,0.4-0.3,0.4-0.6c0-0.1,0-0.2-0.1-0.3
			C-74.1,361.9-73.9,360.8-73.9,359.7z M-76.1,358.7c0.3,0.3,0.5,0.7,0.5,1.2c0,1.1-1,2-2.3,2c-1.2,0-2.1-0.7-2.3-1.7
			c0-0.4-0.4-0.6-0.8-0.6c-0.4,0-0.7,0.3-0.8,0.6c-0.1,1-1.1,1.8-2.3,1.8c-1.3,0-2.3-0.9-2.3-2c0-0.4,0.2-0.9,0.5-1.2
			c-0.4,0.2-1-0.5-0.5-0.3c0.3,0.1,0.7,0,1-0.2c0,0,0,0,0,0c0,0,0,0,0,0c-0.3,0.1-0.6-0.4-0.3-0.2c0.2,0.2,0.7,0.1,0.8,0
			c-0.3,0-0.4-0.5-0.2-0.3c0.2,0.2,0.8,0.2,0.8,0.2l0,0c0.1,0,0.1,0,0.2,0c1.2,0,2.2,0.8,2.3,1.8c0.2-0.2,0.4-0.3,0.8-0.3
			c0.3,0,0.6,0.1,0.8,0.3c0.1-1,1.1-1.9,2.3-1.9c0.1,0,0.1,0,0.2,0l0,0c0,0,0.6,0.1,0.8-0.2c0.2-0.2,0.1,0.3-0.2,0.3
			c0.2,0.1,0.6,0.2,0.8,0c0.3-0.2,0,0.3-0.3,0.2c0,0,0,0,0,0c0,0,0,0,0,0c0.3,0.1,0.7,0.3,1,0.2C-75.1,358.2-75.7,358.8-76.1,358.7z
			"/>
	</g>
	<g>
		<path class="st0" d="M-111.5,359.5c0-0.4,0-0.9-0.1-1.3c-0.2-1-1.1-1.7-2-1.5c-0.1,0-0.6,0.2-0.8,0.3c-0.2-0.1-0.6-0.3-0.8-0.3
			c-0.9-0.1-1.8,0.6-2,1.5c-0.1,0.4,0,0.9-0.1,1.3c0,0,0,0,0,0c0,0.1,0,0.3,0,0.4c0,0.2,0.1,0.4,0.2,0.5c0.2,0.1,0.4,0.1,0.6-0.1
			c0.1-0.1,0.2-0.3,0.4-0.4c0.1,0,0.2,0,0.3,0c0.5-0.1,0.9-0.4,1.2-0.8c0.1-0.2,0.2-0.3,0.3-0.5c0.1,0.2,0.2,0.4,0.3,0.5
			c0.3,0.4,0.6,0.7,1.2,0.8c0.1,0,0.2,0,0.3,0c0.1,0.1,0.3,0.2,0.4,0.4c0.2,0.2,0.4,0.2,0.6,0.1c0.1-0.1,0.1-0.3,0.2-0.5
			C-111.5,359.8-111.5,359.6-111.5,359.5C-111.5,359.5-111.5,359.5-111.5,359.5z"/>
		<path d="M-106.1,349.1h-2.5c0-0.2,0.1-0.4,0.1-0.6v-1c0-1.4-1.2-2.6-2.6-2.6h-6.5c-1.4,0-2.6,1.2-2.6,2.6v1c0,0.2,0,0.4,0.1,0.6
			h-2.5c-0.3,0-0.5,0.5-0.5,1s0.2,1,0.5,1h2.4c-0.6,1-1,2.2-1,3.4c0,3.8,3,6.8,6.8,6.8c3.8,0,6.8-3,6.8-6.8c0-1.3-0.4-2.4-1-3.4h2.4
			c0.3,0,0.5-0.5,0.5-1C-105.6,349.6-105.8,349.1-106.1,349.1z M-111.5,359.9c0,0.2-0.1,0.4-0.2,0.5c-0.2,0.1-0.4,0.1-0.6-0.1
			c-0.1-0.1-0.2-0.3-0.4-0.4c-0.1,0-0.2,0-0.3,0c-0.5-0.1-0.9-0.4-1.2-0.8c-0.1-0.2-0.2-0.3-0.3-0.5c-0.1,0.2-0.2,0.4-0.3,0.5
			c-0.3,0.4-0.6,0.7-1.2,0.8c-0.1,0-0.2,0-0.3,0c-0.1,0.1-0.3,0.2-0.4,0.4c-0.2,0.2-0.4,0.2-0.6,0.1c-0.1-0.1-0.1-0.3-0.2-0.5
			c0-0.1,0-0.3,0-0.4c0,0,0,0,0,0c0-0.4,0-0.9,0.1-1.3c0.2-1,1.1-1.7,2-1.5c0.1,0,0.6,0.2,0.8,0.3c0.2-0.1,0.6-0.3,0.8-0.3
			c0.9-0.1,1.8,0.6,2,1.5c0.1,0.4,0,0.9,0.1,1.3c0,0,0,0,0,0C-111.5,359.6-111.4,359.8-111.5,359.9z"/>
	</g>
</g>
</svg>
