<?xml version="1.0" encoding="utf-8"?>
<!-- Generator: Adobe Illustrator 23.1.0, SVG Export Plug-In . SVG Version: 6.00 Build 0)  -->
<svg version="1.1" id="Layer_1" xmlns="http://www.w3.org/2000/svg" xmlns:xlink="http://www.w3.org/1999/xlink" x="0px" y="0px"
	 viewBox="0 0 50 48.7" style="enable-background:new 0 0 50 48.7;" xml:space="preserve">
<style type="text/css">
	.st0{fill-rule:evenodd;clip-rule:evenodd;}
	.st1{fill:none;}
	.st2{fill:#FFFFFF;}
	.st3{font-family:'SanomatSans-Regular';}
	.st4{font-size:5.4057px;}
</style>
<circle class="st0" cx="17.8" cy="34" r="3.2"/>
<g>
	<path class="st0" d="M21.7,12.9c-0.4-0.8-0.6-1.7-0.6-2.7c0-3.5,2.9-6.4,6.4-6.4s6.4,2.9,6.4,6.4c0,1-0.2,1.9-0.6,2.7l1.2,0.7
		c1.5,0.7,2.7,1.7,3.2,3.3c0.1,0.4,0.2,0.8,0.2,1.3v7.7c0,1.9-1.5,3.6-3.3,3.8V42c0,2.3-1.9,4.2-4.2,4.2c-1.1,0-2.1-0.4-2.9-1.1
		c-0.7,0.7-1.8,1.1-2.9,1.1c-2.3,0-4.2-1.9-4.2-4.2v-1.9c0,0,0,0-0.1,0v3c0,1.6-1.3,3-3,3s-3-1.3-3-3v-3.2c-0.6-0.4-1.2-0.9-1.6-1.5
		c-0.5-0.8-0.8-1.7-0.8-2.6l0.4-2.3c-0.1-0.3-0.1-0.6-0.1-0.9c0-0.9,0.3-1.7,0.7-2.4c0.4-0.6,0.8-1,1.4-1.4v-1.8
		c0-1.5,0.7-2.9,1.8-3.8c0.3-0.2,0.5-0.4,0.8-0.6v-4.6c0-0.4,0.1-0.9,0.2-1.3c0.5-1.5,1.7-2.6,3.2-3.2L21.7,12.9L21.7,12.9z
		 M21.8,14.3L21,14.7c-1.1,0.5-2.1,1.3-2.5,2.5c-0.1,0.3-0.1,0.6-0.1,0.9v5.3l-0.6,0.4c-0.2,0.1-0.5,0.3-0.7,0.5
		c-0.9,0.7-1.4,1.8-1.4,2.9v2.5l-0.6,0.4c-0.4,0.2-0.8,0.6-1,1c-0.3,0.5-0.5,1.1-0.5,1.7c0,0.2,0,0.4,0.1,0.7l-0.4,1.4l0,1.1
		c0,0.7,0.2,1.4,0.6,2c0.3,0.5,0.7,0.9,1.2,1.1l0.6,0.4v3.9c0,1,0.8,1.8,1.8,1.8c1,0,1.8-0.8,1.8-1.8v-3.8l0.7-0.3c0,0,0,0,0,0
		l1.8-1V42c0,1.6,1.3,2.9,2.9,2.9c0.8,0,1.5-0.3,2-0.8l0.8-0.8l0.8,0.8c0.5,0.5,1.3,0.8,2,0.8c1.6,0,2.9-1.3,2.9-2.9V28.5l1.1-0.1
		c1.3-0.2,2.3-1.3,2.3-2.6v-7.7c0-0.3,0-0.6-0.1-0.9c-0.4-1.2-1.4-2-2.5-2.5l-0.7-0.3l-1.9-0.3l0.8-1.7c0.3-0.7,0.5-1.4,0.5-2.2
		c0-2.8-2.3-5.2-5.2-5.2s-5.2,2.3-5.2,5.2c0,0.7,0.2,1.5,0.5,2.2l0.8,1.7L21.8,14.3L21.8,14.3z"/>
	<g>
		<g>
			<path d="M20.1,24.4c0.3,0,0.5,0.2,0.5,0.5c0,0.3-0.2,0.5-0.5,0.5c-0.6,0-1.1,0.2-1.5,0.5c-0.4,0.3-0.6,0.7-0.6,1.1v16.1
				c0,0.3-0.2,0.5-0.5,0.5c-0.3,0-0.5-0.2-0.5-0.5V27.1c0-0.8,0.4-1.5,1-2C18.5,24.7,19.3,24.4,20.1,24.4z"/>
		</g>
		<g>
			<path d="M23,19.4c0-2.5,2-4.6,4.6-4.6s4.6,2,4.6,4.6V27c0,2.5-2,4.6-4.6,4.6S23,29.6,23,27V19.4z"/>
			<path d="M28.7,26.6c0-0.9,0.8-1.7,1.7-1.7c0.9,0,1.7,0.8,1.7,1.7V42c0,0.9-0.8,1.7-1.7,1.7c-0.9,0-1.7-0.8-1.7-1.7
				C28.7,42,28.7,26.6,28.7,26.6z"/>
			<path d="M23,26.1c0-0.9,0.8-1.7,1.7-1.7c0.9,0,1.7,0.8,1.7,1.7v16c0,0.9-0.8,1.7-1.7,1.7C23.7,43.7,23,43,23,42
				C23,42,23,26.1,23,26.1z"/>
			<circle class="st0" cx="27.5" cy="10.2" r="3.9"/>
			<path d="M27.5,17.7c-0.1,0-0.3,0-0.4,0c0,0-4.8-0.4-4.8,0.4v7.7c0,0.8-0.6,1.4-1.4,1.4c-0.8,0-1.4-0.6-1.4-1.4v-7.7
				c0-4.5,15.8-4.5,15.8,0v7.7c0,0.8-0.6,1.4-1.4,1.4c-0.8,0-1.4-0.6-1.4-1.4v-7.7c0-0.8-4.8-0.4-4.8-0.4
				C27.8,17.7,27.7,17.7,27.5,17.7L27.5,17.7z"/>
			<rect x="23" y="15.3" class="st0" width="9.1" height="4.9"/>
		</g>
	</g>
	<rect y="0" class="st1" width="50" height="50"/>
</g>
<text transform="matrix(1 0 0 1 16.3604 35.6748)" class="st2 st3 st4">₹</text>
</svg>
