<?xml version="1.0" encoding="utf-8"?>
<!-- Generator: Adobe Illustrator 19.1.0, SVG Export Plug-In . SVG Version: 6.00 Build 0)  -->
<svg version="1.1" id="Layer_1" xmlns="http://www.w3.org/2000/svg" xmlns:xlink="http://www.w3.org/1999/xlink" x="0px" y="0px"
	 viewBox="-148.7 347.6 99.2 80.8" style="enable-background:new -148.7 347.6 99.2 80.8;" xml:space="preserve">
<title>Artboard 15</title>
<path d="M-72.7,367.2c0.3-0.9,0.9-1.6,1.8-2c0.8-0.3,1.8-0.3,2.5,0.1c5,2.8,8,8.2,7.7,13.9c-0.1,0.9-0.5,1.7-1.3,2.2l-0.3,0.2
	c-0.7,0.4-1.5,0.5-2.3,0.3l-0.2-0.1c-1.3-0.4-2.2-1.6-2.1-3c0.1-3.3-1.6-6.4-4.4-8c-1.2-0.7-1.8-2.1-1.5-3.4L-72.7,367.2z
	 M-65.4,354.4c-0.8-0.3-1.7-0.3-2.5,0.1c-0.8,0.4-1.4,1.1-1.6,1.9v0.1c-0.4,1.5,0.3,3,1.7,3.6c8.5,3.6,13.3,12.5,11.8,21.6
	c-0.2,1.5,0.7,3,2.2,3.4h0.1c0.8,0.2,1.6,0.1,2.3-0.3l0.2-0.1c0.7-0.5,1.2-1.2,1.4-2.1C-47.9,370.7-54.3,359-65.4,354.4L-65.4,354.4
	z M-139.6,423.7l-8.5-15.4c-1.1-1.6-0.7-3.8,0.9-4.9c1.6-1.1,3.8-0.7,4.9,0.9c0.1,0.2,0.3,0.4,0.3,0.6l0.6,1l45.3-50.6l-1.4-2.6
	c-0.9-1.7-0.1-3.8,1.6-4.7c1.6-0.8,3.6-0.2,4.5,1.3l32,58c1,1.6,0.5,3.8-1.2,4.8c-1.6,1-3.8,0.5-4.8-1.2c-0.1-0.1-0.1-0.2-0.2-0.3
	l-1.8-3.1l-25.6,4.3c1.1,8-4.5,15.4-12.6,16.5c-6,0.8-11.9-2.1-14.8-7.4l-2.3-4.1l-11.8,2l0.8,1.5c0.8,1.8,0,3.8-1.8,4.6
	C-136.8,425.6-138.6,425.1-139.6,423.7z M-99.8,413l-15.5,2.6l1.1,2c2,3.7,6.7,5.1,10.4,3.1C-100.9,419.2-99.4,416.1-99.8,413z
	 M-130.8,406.1l40-30.4c0.8-0.6,1-1.7,0.5-2.5l-4-7.2c-0.3-0.6-1-0.8-1.6-0.5c-0.1,0.1-0.2,0.1-0.3,0.2l-35.4,39.6
	c-0.2,0.3-0.1,0.6,0.1,0.8C-131.2,406.3-130.9,406.3-130.8,406.1L-130.8,406.1z"/>
</svg>
