<?xml version="1.0" encoding="utf-8"?>
<!-- Generator: Adobe Illustrator 23.1.0, SVG Export Plug-In . SVG Version: 6.00 Build 0)  -->
<svg version="1.1" id="Layer_1" xmlns="http://www.w3.org/2000/svg" xmlns:xlink="http://www.w3.org/1999/xlink" x="0px" y="0px"
	 viewBox="0 0 67 68.2" style="enable-background:new 0 0 67 68.2;" xml:space="preserve">
<g>
	<g>
		<path d="M61.7,15.3v-3.7h-3.4c-0.2-0.8-0.5-1.5-0.9-2.2l2.4-2.4l-2.7-2.7l-2.4,2.4C54,6.3,53.3,6,52.5,5.8V2.3h-3.7v3.4
			C48,6,47.2,6.3,46.6,6.7l-2.4-2.4l-2.6,2.7l2.4,2.4c-0.4,0.7-0.7,1.4-0.9,2.2h-3.4v3.7H43c0.2,0.8,0.5,1.5,0.9,2.2l-2.4,2.4
			l2.6,2.6l2.4-2.4c0.7,0.4,1.4,0.7,2.2,0.9v3.4h3.7V21c0.8-0.2,1.5-0.5,2.2-0.9l2.4,2.4l2.5-2.5l0.1-0.1l-2.4-2.4
			c0.4-0.7,0.7-1.4,0.9-2.2L61.7,15.3L61.7,15.3z M50.6,16.4c-1.7,0-3-1.3-3-3c0-1.7,1.3-3,3-3c1.7,0,3,1.3,3,3
			C53.6,15,52.3,16.4,50.6,16.4z"/>
	</g>
	<g>
		<rect x="54.6" y="38.7" width="2" height="3.7"/>
		<rect x="58.5" y="38.7" width="2" height="5.6"/>
		<rect x="62.4" y="38.7" width="2" height="3.7"/>
		<rect x="58.5" y="34.6" width="2" height="2.7"/>
	</g>
	<g>
		<path d="M35,43.9c0.4,0-8.7,0-8.9,0v2.8l8.9,0L35,43.9z"/>
		<path d="M30.5,51.1c1,0,1.8-0.8,1.8-1.8v-0.5h-3.7v0.5C28.7,50.3,29.5,51.1,30.5,51.1z"/>
		<polygon points="29.4,41.9 31.6,41.9 30.5,33 		"/>
		<path d="M43.6,24.8l-4.9-4.9l2.6-2.6h-3.7v-6.5c-2-1.4-4.4-2.2-7.1-2.3c-7.6,0-13.6,5.9-13.6,13.5c0,8.4,6.1,9.1,8.8,20.1h1.6
			l2-16h-5.8c-0.5,0-1-0.4-1-1c0-0.6,0.5-1,1-1h13.9c0.5,0,1,0.4,1,1c0,0.6-0.5,1-1,1h-5.8l2,16h1.6C37.3,33.5,42.4,30,43.6,24.8z"
			/>
		<path d="M50.3,43c-8.2,11.2-6,21.8-6,22.5H20.8L22.1,53H10.6c-2.5,0-4.5-2.1-4.5-4.7V39H4.3c-1.1,0-2-1.1-1.6-2.2l3.5-12.5
			c1.3-12.8,12-22.8,24.5-22.8c4,0,7.6,0.9,10.8,2.6l-2.9,2.8l2.6,2.6h-1.9c-2.4-1.9-5.4-3-8.8-3.1c-8.8,0-15.6,6.8-15.6,15.5
			c0,9.4,6.6,10.2,9.1,21.3l0,0.1v3.6c0,1.1,0.9,2,2,2h0.6v0.5c0,2.1,1.7,3.8,3.8,3.8c2.1,0,3.8-1.7,3.8-3.8v-0.5H35
			c1.1,0,2-0.9,2-2v-3.7c2-9.1,8.2-12.7,8.8-19.4l1-1v3.7h7.7v-3.7l0.6,0.6C56.1,29.9,54.7,36.9,50.3,43z"/>
	</g>
</g>
</svg>
