<?xml version="1.0" encoding="utf-8"?>
<!-- Generator: Adobe Illustrator 19.1.0, SVG Export Plug-In . SVG Version: 6.00 Build 0)  -->
<svg version="1.1" id="Layer_1" xmlns="http://www.w3.org/2000/svg" xmlns:xlink="http://www.w3.org/1999/xlink" x="0px" y="0px"
	 viewBox="-166.7 361 63.7 64" style="enable-background:new -166.7 361 63.7 64;" xml:space="preserve">
<path d="M-123.4,387c-0.1,0-0.3,0-0.4,0l-0.2,0l-0.2,0c-0.1,0-0.3,0-0.4,0c-5.9,0.2-12.4,5.1-16.6,12.3c-5.6,9.8-5.1,20.8,1.3,24.4
	c3.6,2.1,8.3,1.5,13-1.6c1.7-1.1,4-1.1,5.7,0c2.8,1.9,5.7,2.8,8.2,2.8c1.7,0,3.3-0.4,4.7-1.2c6.3-3.7,6.9-14.6,1.3-24.4
	C-111.1,392.1-117.6,387.2-123.4,387z M-109.2,422c-2.9,1.7-6.9,1.1-10.9-1.5c-1.2-0.8-2.6-1.2-4-1.2c-1.4,0-2.8,0.4-4,1.2
	c-4,2.6-8,3.2-10.9,1.5c-5.4-3.1-5.6-12.9-0.5-21.7c3.8-6.6,9.8-11.1,14.9-11.3c0.1,0,0.1,0,0.2,0l0.2,0l0.2,0c0.1,0,0.2,0,0.3,0
	c5.1,0.2,11.1,4.7,14.9,11.3C-103.6,409.2-103.8,418.9-109.2,422z"/>
<path d="M-124,392c-2.2,0-4,1.8-4,4s1.8,4,4,4s4-1.8,4-4S-121.8,392-124,392z M-124,398c-1.1,0-2-0.9-2-2c0-1.1,0.9-2,2-2
	c1.1,0,2,0.9,2,2C-122,397.1-122.9,398-124,398z"/>
<path d="M-124,409c-2.2,0-4,1.8-4,4s1.8,4,4,4s4-1.8,4-4S-121.8,409-124,409z M-124,415c-1.1,0-2-0.9-2-2c0-1.1,0.9-2,2-2
	c1.1,0,2,0.9,2,2C-122,414.1-122.9,415-124,415z"/>
<path d="M-111,403c0-2.2-1.8-4-4-4s-4,1.8-4,4s1.8,4,4,4S-111,405.2-111,403z M-117,403c0-1.1,0.9-2,2-2c1.1,0,2,0.9,2,2
	c0,1.1-0.9,2-2,2C-116.1,405-117,404.1-117,403z"/>
<path d="M-133,399c-2.2,0-4,1.8-4,4s1.8,4,4,4c2.2,0,4-1.8,4-4S-130.8,399-133,399z M-133,405c-1.1,0-2-0.9-2-2c0-1.1,0.9-2,2-2
	c1.1,0,2,0.9,2,2C-131,404.1-131.9,405-133,405z"/>
<path d="M-136,409c-2.2,0-4,1.8-4,4s1.8,4,4,4c2.2,0,4-1.8,4-4S-133.8,409-136,409z M-136,415c-1.1,0-2-0.9-2-2c0-1.1,0.9-2,2-2
	c1.1,0,2,0.9,2,2C-134,414.1-134.9,415-136,415z"/>
<path d="M-112,409c-2.2,0-4,1.8-4,4s1.8,4,4,4s4-1.8,4-4S-109.8,409-112,409z M-112,415c-1.1,0-2-0.9-2-2c0-1.1,0.9-2,2-2
	c1.1,0,2,0.9,2,2C-110,414.1-110.9,415-112,415z"/>
<path d="M-144,380.6v3.4c0,0.6,0.4,1,1,1h36c0.6,0,1-0.4,1-1v-3.4c2-1.7,3-3.6,3-5.6c0-5.5-7.7-9.9-18.1-10.8
	c-0.4-1.8-2-3.2-3.9-3.2c-1.9,0-3.5,1.4-3.9,3.2c-10.4,0.9-18.1,5.3-18.1,10.8C-147,377-146,378.9-144,380.6z M-142,383v-2h34v2
	H-142z M-125,363c0.8,0,1.4,0.4,1.7,1c-0.6,0-1.2,0-1.7,0c-0.6,0-1.2,0-1.7,0C-126.4,363.4-125.8,363-125,363z M-125,366
	c10.8,0,20,4.1,20,9c0,1.7-1.1,3-2.2,4h-7.2c2-1.7,3.4-4.2,3.4-7h-2c0,3.9-3.1,7-7,7h-11c-3.9,0-7-3.1-7-7h-2c0,2.8,1.3,5.3,3.4,7
	h-6.1c-1.1-1-2.2-2.3-2.2-4C-145,370.1-135.8,366-125,366z"/>
<path d="M-150.5,371.1c1-1.3,1.6-3.7,0.2-5.1c-0.6-0.5-1.4-0.8-2.4-0.8c-2.2,0-4.2,0.8-6.1,1.6c-1.1,0.4-2.2,0.8-3.2,1.1l-0.2,0
	c-0.7,0.2-2,0.5-2.4,0c0,0,0-0.1,0-0.4c0.1-2,2.1-4.1,3.2-5.2l-1.4-1.4c-1.3,1.3-3.7,3.7-3.8,6.5c0,0.6,0.1,1.1,0.4,1.6
	c1.1,1.7,3.3,1.1,4.5,0.8l0.2,0c1.2-0.3,2.4-0.8,3.5-1.2c1.9-0.7,3.6-1.4,5.4-1.4c0.5,0,0.8,0.1,0.9,0.2c0.5,0.5,0.1,1.9-0.4,2.5
	c-0.6,0.8-1.7,1.7-2.5,2.3l0,0c0,0-0.1,0-0.1,0.1c-0.2,0.2-5.3,5.2-5.3,9.7c0,3.3,1.3,5.3,3,6.2l-1,8.7c0,0,0,0.1,0,0.1l0.9,25
	c0.1,1.7,1.4,3,3.1,3c1.7,0,3-1.3,3.1-3l0.9-25c0,0,0-0.1,0-0.1l-1-8.7c1.7-1,3-2.9,3-6.2c0-3.5-3.1-7.3-4.5-8.9
	C-151.8,372.5-151.1,371.8-150.5,371.1z M-154,374.4c0.9,1,2.2,2.6,3,4.2l-1,1.5l-1.2-1.8c-0.4-0.6-1.3-0.6-1.7,0l-1.2,1.8l-1-1.5
	C-156.1,376.9-154.8,375.3-154,374.4z M-152,397l-0.9,24.9c0,0.6-0.5,1-1.1,1c-0.6,0-1.1-0.5-1.1-1L-156,397l0.9-8.1
	c0.4,0.1,0.7,0.1,1.1,0.1c0.4,0,0.7,0,1.1-0.1L-152,397z M-154,387c-2.5,0-4-1.8-4-5c0-0.3,0-0.7,0.1-1l1.1,1.6
	c0.4,0.6,1.3,0.6,1.7,0l1.2-1.8l1.2,1.8c0.2,0.3,0.5,0.4,0.8,0.4c0.3,0,0.6-0.2,0.8-0.4l1.1-1.6c0.1,0.3,0.1,0.7,0.1,1
	C-150,385.2-151.5,387-154,387z"/>
</svg>
