<?xml version="1.0" encoding="utf-8"?>
<!-- Generator: Adobe Illustrator 19.1.0, SVG Export Plug-In . SVG Version: 6.00 Build 0)  -->
<svg version="1.1" id="Layer_1" xmlns="http://www.w3.org/2000/svg" xmlns:xlink="http://www.w3.org/1999/xlink" x="0px" y="0px"
	 viewBox="-495 597.1 100 95.9" style="enable-background:new -495 597.1 100 95.9;" xml:space="preserve">
<g>
	<path d="M-476.8,657.1c0.8,0,1.5-0.7,1.5-1.5c0-0.8-0.7-1.5-1.5-1.5c-0.8,0-1.5,0.7-1.5,1.5C-478.3,656.5-477.6,657.1-476.8,657.1"
		/>
	<path d="M-486.2,663.2c0.8,0,1.5-0.7,1.5-1.5c0-0.8-0.7-1.5-1.5-1.5c-0.8,0-1.5,0.7-1.5,1.5C-487.7,662.6-487,663.2-486.2,663.2"/>
	<path d="M-481.9,666.8c0.8,0,1.5-0.7,1.5-1.5s-0.7-1.5-1.5-1.5c-0.8,0-1.5,0.7-1.5,1.5C-483.3,666.2-482.7,666.8-481.9,666.8"/>
	<path d="M-486,669.3c0.8,0,1.5-0.7,1.5-1.5c0-0.8-0.7-1.5-1.5-1.5c-0.8,0-1.5,0.7-1.5,1.5C-487.5,668.7-486.8,669.3-486,669.3"/>
	<path d="M-493.3,662.7c0.8,0,1.5-0.7,1.5-1.5c0-0.8-0.7-1.5-1.5-1.5s-1.5,0.7-1.5,1.5C-494.8,662-494.2,662.7-493.3,662.7"/>
	<path d="M-476.9,682.9c0.8,0,1.5-0.7,1.5-1.5c0-0.8-0.7-1.5-1.5-1.5c-0.8,0-1.5,0.7-1.5,1.5C-478.4,682.2-477.8,682.9-476.9,682.9"
		/>
	<path d="M-477,664.8c0.8,0,1.5-0.7,1.5-1.5c0-0.8-0.7-1.5-1.5-1.5s-1.5,0.7-1.5,1.5C-478.5,664.1-477.8,664.8-477,664.8"/>
	<path d="M-454,674.4c0.8,0,1.5-0.7,1.5-1.5c0-0.8-0.7-1.5-1.5-1.5s-1.5,0.7-1.5,1.5C-455.5,673.8-454.8,674.4-454,674.4"/>
	<path d="M-449,684.6c0.8,0,1.5-0.7,1.5-1.5c0-0.8-0.7-1.5-1.5-1.5s-1.5,0.7-1.5,1.5C-450.5,684-449.8,684.6-449,684.6"/>
	<path d="M-448.5,674.4c0.8,0,1.5-0.7,1.5-1.5c0-0.8-0.7-1.5-1.5-1.5s-1.5,0.7-1.5,1.5C-450,673.8-449.3,674.4-448.5,674.4"/>
	<path d="M-450.8,669.8c0.8,0,1.5-0.7,1.5-1.5c0-0.8-0.7-1.5-1.5-1.5c-0.8,0-1.5,0.7-1.5,1.5C-452.3,669.2-451.6,669.8-450.8,669.8"
		/>
	<path d="M-443,671.4c0.8,0,1.5-0.7,1.5-1.5c0-0.8-0.7-1.5-1.5-1.5c-0.8,0-1.5,0.7-1.5,1.5C-444.5,670.7-443.9,671.4-443,671.4"/>
	<path d="M-480.5,661.5c0.8,0,1.5-0.7,1.5-1.5c0-0.8-0.7-1.5-1.5-1.5c-0.8,0-1.5,0.7-1.5,1.5C-481.9,660.8-481.3,661.5-480.5,661.5"
		/>
	<path d="M-492.2,686.9c-0.2,0-0.3,0-0.5-0.1c-0.7-0.3-1.1-1.1-0.9-1.8c0.1-0.3,1.2-3.3,3.7-4.5c1.8-0.8,3.5-0.9,5.1-0.2
		c2.8,1.2,4,4.3,4.1,4.5c0.3,0.7-0.1,1.5-0.8,1.8c-0.7,0.3-1.5-0.1-1.8-0.8c0,0-0.9-2.2-2.6-2.9c-0.8-0.3-1.8-0.3-2.9,0.2
		c-1.2,0.5-2,2.3-2.2,2.9C-491.1,686.6-491.6,686.9-492.2,686.9L-492.2,686.9z"/>
</g>
<g>
	<path d="M-415.6,684.6c-2.5,0-4.8-1.6-6.4-4.5c-1.7,2.9-3.9,4.5-6.4,4.5s-4.8-1.6-6.4-4.5c-1.7,2.9-3.9,4.5-6.4,4.5
		c-0.8,0-1.4-0.6-1.4-1.4c0-0.8,0.6-1.4,1.4-1.4c2,0,4-2.1,5.1-5.5c0.2-0.6,0.7-0.9,1.3-0.9s1.1,0.4,1.3,0.9
		c1.2,3.4,3.1,5.5,5.1,5.5c2,0,4-2.1,5.1-5.5c0.2-0.6,0.7-0.9,1.3-0.9s1.1,0.4,1.3,0.9c1.2,3.4,3.1,5.5,5.1,5.5c2,0,4-2.1,5.1-5.5
		c0.2-0.6,0.7-0.9,1.3-0.9c0.6,0,1.1,0.4,1.3,0.9c1.1,3.2,3,5.3,4.9,5.5c0.8,0.1,1.3,0.7,1.2,1.5c-0.1,0.8-0.7,1.3-1.5,1.2
		c-2.3-0.2-4.4-1.8-5.9-4.5C-410.8,683-413.1,684.6-415.6,684.6L-415.6,684.6z"/>
	<g>
		<path d="M-439.6,613.2h-5.8v27.7c-5.3,1-13.9,4-21.2,13c-3.8,4.6-6,11.7-7,15.3c-0.9-0.6-2.1-1-3.6-1c-3.1,0-4.7,1.5-4.8,1.6
			c-0.5,0.5-0.5,1.4,0,2c0.5,0.5,1.4,0.5,2,0c0,0,0.9-0.8,2.8-0.8c2,0,3.3,1.5,3.3,1.6c0.3,0.3,0.7,0.5,1.1,0.5c0.1,0,0.2,0,0.3,0
			c0.5-0.1,0.9-0.5,1.1-1.1c0-0.1,2.3-10.6,6.9-16.3c6.5-8,14.2-10.8,19.1-11.8v3.2c-4,0.9-9.7,3.4-15.3,10.3
			c-5.1,6.3-7.5,15.6-8.7,21.6c-1.3-2.5-3.5-4.9-6.9-4.9c0,0-0.1,0-0.1,0c-2.2,0-4.1,1.2-5.4,2.1c-1.2-2.1-3.5-4.3-7-3.8
			c-5.3,0.8-6.2,5.1-6.2,5.3c-0.1,0.8,0.3,1.5,1.1,1.6c0.8,0.2,1.5-0.3,1.6-1.1c0,0,0.5-2.5,3.9-3.1c3.4-0.6,4.7,3.5,4.7,3.7
			c0.1,0.5,0.5,0.9,1,1c0.5,0.1,1-0.1,1.3-0.4c0,0,2.4-2.6,4.9-2.6c0,0,0,0,0.1,0c4.8,0,6,8.2,6.1,8.3c0.1,0.7,0.7,1.2,1.4,1.2
			c0,0,0,0,0,0c0.7,0,1.3-0.6,1.4-1.3c0-0.2,1.6-17,8.9-26.1c2.9-3.6,5.9-5.9,8.5-7.3c-2.5,2.1-4.6,4.5-6.2,7.5
			c-5.8,10.3-4.9,26.4-4.9,27.1c0,0.6,0.5,1.1,1.1,1.2c0.1,0,0.1,0,0.2,0c0.5,0,1-0.3,1.2-0.8c0,0,1.9-4.9,5.4-6.6
			c3.5-1.7,6.8-0.8,6.8-0.8c0.7,0.2,1.4-0.2,1.6-0.9c0.2-0.7-0.2-1.4-0.9-1.6c-0.2-0.1-4.3-1.3-8.7,0.9c-1.7,0.9-3.1,2.3-4.2,3.6
			c0.2-5.5,1-14.5,4.6-20.8c2.2-3.8,5-6.7,8.6-8.9v7.4h5.8v-4.7h0v-36.5h0L-439.6,613.2L-439.6,613.2z"/>
		<polygon points="-398.6,597.1 -398.6,617.8 -437.3,617.8 -437.3,654.3 -398.6,654.3 -398.6,693 -395,693 -395,597.1 		"/>
	</g>
</g>
</svg>
