<?xml version="1.0" encoding="utf-8"?>
<!-- Generator: Adobe Illustrator 19.1.0, SVG Export Plug-In . SVG Version: 6.00 Build 0)  -->
<svg version="1.1" id="Layer_1" xmlns="http://www.w3.org/2000/svg" xmlns:xlink="http://www.w3.org/1999/xlink" x="0px" y="0px"
	 viewBox="-189 388 20 20" style="enable-background:new -189 388 20 20;" xml:space="preserve">
<g>
	<path d="M-170,401h-18c-0.5,0-1,0.4-1,1v4c0,0.5,0.5,1,1,1h1v1h3v-1h9v1h3v-1h2c0.5,0,1-0.5,1-1v-4C-169,401.5-169.5,401-170,401z
		 M-186,405c-0.6,0-1-0.5-1-1c0-0.6,0.4-1,1-1c0.5,0,1,0.4,1,1S-185.4,405-186,405z M-182,405c-0.5,0-1-0.5-1-1c0-0.6,0.5-1,1-1
		s1,0.4,1,1S-181.5,405-182,405z M-178,405c-0.5,0-1-0.5-1-1c0-0.6,0.5-1,1-1s1,0.4,1,1S-177.5,405-178,405z"/>
	<path d="M-184.7,392.3c3.1-3.1,8.2-3.1,11.3,0c0.4,0.4,1,0.4,1.4,0c0.4-0.4,0.4-1,0-1.4c-3.8-3.9-10.2-3.9-14.1,0
		c-0.4,0.4-0.4,1,0,1.4C-185.7,392.7-185,392.7-184.7,392.3z"/>
	<path d="M-174.8,395.2c0.4-0.4,0.4-1,0-1.4c-2.3-2.3-6.1-2.3-8.5,0c-0.4,0.4-0.4,1,0,1.4c0.4,0.4,1,0.4,1.4,0
		c1.6-1.6,4.1-1.6,5.7,0C-175.8,395.6-175.2,395.6-174.8,395.2z"/>
	<circle cx="-179" cy="398" r="2"/>
</g>
</svg>
