<?xml version="1.0" encoding="utf-8"?>
<!-- Generator: Adobe Illustrator 19.1.0, SVG Export Plug-In . SVG Version: 6.00 Build 0)  -->
<svg version="1.1" id="Layer_1" xmlns="http://www.w3.org/2000/svg" xmlns:xlink="http://www.w3.org/1999/xlink" x="0px" y="0px"
	 viewBox="-143.8 370.5 89.9 62.8" style="enable-background:new -143.8 370.5 89.9 62.8;" xml:space="preserve">
<style type="text/css">
	.st0{stroke:#231F20;stroke-width:2;stroke-linecap:round;stroke-miterlimit:10;}
</style>
<g>
	<circle cx="-102.5" cy="403" r="3.3"/>
</g>
<g>
	<path d="M-134.1,411.3c-0.4,0-0.7-0.2-0.8-0.6c0,0-2.5-6.7-2.6-6.8l-0.4-1.1h1.2c4-0.1,7.9-0.7,11.8-1.8c0.5-0.1,0.9,0.1,1.1,0.6
		c0.1,0.5-0.1,0.9-0.6,1.1c-3.6,1-7.2,1.6-11,1.8c0.2,0.6,0.5,1.3,0.9,2.3l1.3,3.4c0.2,0.5-0.1,1-0.5,1.1
		C-133.9,411.3-134,411.3-134.1,411.3z"/>
</g>
<g>
	<path class="st0" d="M-119.2,428.2"/>
</g>
<g>
	<path d="M-127.8,429.2l-2.6-7c-0.2-0.5,0.1-1,0.5-1.1c0.5-0.2,1,0.1,1.1,0.5l2.2,5.8c2.7-0.1,7.2-0.5,11.2-2c0.5-0.2,1,0.1,1.1,0.5
		c0.2,0.5-0.1,1-0.5,1.1c-4.3,1.7-9.1,2.1-12.4,2.1L-127.8,429.2z"/>
</g>
<path d="M-89.8,399c-0.5-1.4-1.3-2.8-2.2-3.9c0.3-0.7,0.5-1.4,0.5-2.2c0-2.9-2.3-5.2-5.2-5.2c-1.8,0-3.3,0.9-4.2,2.2
	c-0.3,0-0.7,0-1,0c-1.3,0-2.5,0.2-3.7,0.7c-3,1.1-5.3,3.5-6.5,6.7c-1.2,3.2-1.1,6.7,0.1,10.1c2.1,5.5,6.9,9.1,12.1,9.1
	c1.3,0,2.5-0.2,3.7-0.7C-90,413.5-87.1,406-89.8,399z M-96.7,414.2c-1,0.4-2,0.6-3.1,0.6c-4.5,0-8.7-3.2-10.5-8
	c-1.1-3-1.2-6.1-0.1-8.9c1-2.7,2.9-4.7,5.4-5.7c1-0.4,2-0.6,3.1-0.6c0.1,0,0.2,0,0.3,0c-0.1,0.4-0.2,0.8-0.2,1.2
	c0,2.9,2.3,5.2,5.2,5.2c1.4,0,2.6-0.6,3.6-1.5c0.6,0.9,1.2,1.9,1.6,3C-89.1,405.7-91.5,412.2-96.7,414.2z"/>
<g>
	<circle cx="-112" cy="416.9" r="2.3"/>
</g>
<path d="M-57.9,394.7L-57.9,394.7l-9.1-24.2h-0.6c-7.1-0.3-14,0.9-20.5,3.3c-6.6,2.5-12.5,6.2-17.6,11c-5,4.7-10.7,8.3-17,10.7
	c-0.8,0.3-1.7,0.6-2.5,0.9c-0.3,0.1-0.6,0.2-0.8,0.2c-0.6,0.2-1.1,0.3-1.7,0.5c-0.4,0.1-0.7,0.2-1.1,0.3c-0.5,0.1-1,0.2-1.5,0.3
	c-0.4,0.1-0.8,0.2-1.2,0.2c-0.5,0.1-0.9,0.2-1.4,0.2c-3.2,0.5-6.4,0.7-9.6,0.6h-1.3l13,34.6h0.6c0.7,0,1.3,0,2,0
	c6.4,0,12.6-1.1,18.5-3.4c6.6-2.5,12.5-6.2,17.6-11c5-4.7,10.7-8.3,17-10.7s13.1-3.5,19.9-3.2h1.3L-57.9,394.7z M-93.4,417.6
	c-5,4.7-10.7,8.3-17,10.7c-6.2,2.3-12.7,3.4-19.3,3.2l-11.7-31c2.7,0,5.5-0.2,8.1-0.5l0,0c0.3,0,0.6-0.1,0.9-0.2
	c0.4-0.1,0.8-0.1,1.2-0.2c0.4-0.1,0.9-0.2,1.3-0.3c0.5-0.1,1-0.2,1.4-0.3c0.4-0.1,0.7-0.2,1.1-0.3c0.6-0.1,1.1-0.3,1.7-0.5
	c0.3-0.1,0.6-0.2,0.9-0.3c0.9-0.3,1.7-0.6,2.5-0.9c6.6-2.5,12.5-6.2,17.6-11c0.6-0.5,1.1-1,1.7-1.5c0.2-0.2,0.4-0.3,0.6-0.5
	c0.4-0.3,0.8-0.6,1.2-1c0.2-0.2,0.5-0.4,0.7-0.5c0.4-0.3,0.8-0.6,1.2-0.9c0.2-0.1,0.4-0.3,0.6-0.4c1.4,3,4.4,5.1,7.9,5.1
	c0.6,0,1.2-0.1,1.8-0.2c0.4-0.1,0.7,0.1,0.9,0.5c0.7,1.3,1.7,2.5,2.9,3.4c0.2,0.2,0.3,0.4,0.3,0.7c0,1.9,0,9.8,0,13.2
	c0,0.9,0.7,1.7,1.7,1.7h0.2c0.9,0,1.7-0.7,1.7-1.7v-11.3c0-0.3,0.3-0.5,0.6-0.4c0.8,0.2,1.5,0.3,2.3,0.4c0.2,0,0.4,0.2,0.4,0.4v14.4
	C-83.6,409.9-88.8,413.3-93.4,417.6z M-73,405.7v-2.8h0.1c0.1,0,0.2,0,0.2,0c3.8-1.1,7.8-1.7,11.8-1.8h1.2l-0.4-1.2
	c-0.1-0.1-2.6-6.8-2.6-6.8c-0.2-0.5-0.7-0.7-1.1-0.5c-0.5,0.2-0.7,0.7-0.5,1.1l1.3,3.4c0.4,1,0.7,1.7,0.9,2.3
	c-3.7,0.2-7.3,0.8-10.8,1.8v-9c0-0.3,0.2-0.6,0.5-0.8c1.2-0.6,2.3-1.4,3.2-2.3c0.2-0.2,0.6-0.3,0.9-0.2c0.6,0.2,1.7,0.5,2.4,0.5
	c1.4,0,2.7-0.3,3.9-0.9l5.5,14.7C-62.2,403.2-67.7,404-73,405.7z"/>
<g>
	<path d="M-72.5,420.9L-72.5,420.9l-2.3-7c-0.3-0.8-1.4-0.8-1.7,0l-2.3,7l0,0c-0.3,0.8-0.3,1.6,0.3,2.6c0.6,1,1.6,1.7,2.7,1.7
		c1.9,0.1,3.4-1.4,3.4-3.3C-72.3,421.6-72.4,421.2-72.5,420.9z"/>
</g>
</svg>
