<?xml version="1.0" encoding="utf-8"?>
<!-- Generator: Adobe Illustrator 19.1.0, SVG Export Plug-In . SVG Version: 6.00 Build 0)  -->
<svg version="1.1" id="Layer_1" xmlns="http://www.w3.org/2000/svg" xmlns:xlink="http://www.w3.org/1999/xlink" x="0px" y="0px"
	 viewBox="-138 346 78 84" style="enable-background:new -138 346 78 84;" xml:space="preserve">
<path d="M-138,355c0-1.7,1.3-3,3-3h42v-3c0-1.7,1.3-3,3-3h9c1.7,0,3,1.3,3,3v3h15c1.7,0,3,1.3,3,3s-1.3,3-3,3c-65.8,0-44.9,0-72,0
	C-136.7,358-138,356.7-138,355z"/>
<path d="M-63,424h-3v-30h3c1.7,0,3-1.3,3-3s-1.3-3-3-3h-3v-24h-66v24h-3c-1.7,0-3,1.3-3,3s1.3,3,3,3h3v30h-3c-1.7,0-3,1.3-3,3
	s1.3,3,3,3h72c1.7,0,3-1.3,3-3S-61.3,424-63,424z M-99,412c-8.3,0-15-6.4-15-14.4c0-10.7,15-21.6,15-21.6s15,10.9,15,21.6
	C-84,405.6-90.7,412-99,412z"/>
</svg>
