<?xml version="1.0" encoding="utf-8"?>
<!-- Generator: Adobe Illustrator 19.1.0, SVG Export Plug-In . SVG Version: 6.00 Build 0)  -->
<svg version="1.1" id="Layer_1" xmlns="http://www.w3.org/2000/svg" xmlns:xlink="http://www.w3.org/1999/xlink" x="0px" y="0px"
	 viewBox="-139.1 343 80 90" style="enable-background:new -139.1 343 80 90;" xml:space="preserve">
<path d="M-65.7,413.7c-0.2-2-1.3-11.7-2.1-14.3c-0.8-2.6-0.3-4.4-0.9-6.9c-0.6-2.4-1-8.5-2.2-11.5s0.2-3.8,0.2-8.5
	c0-4.5,0.6-6-1.1-10.7c1.9-0.6,3.5-1.4,4.8-2.2l2.6-1.8l-4-6.8l-0.2-0.2c-4.6-5.3-23.3-7.8-34.5-7.8c-1.9,0-3.7,0.1-5.4,0.2
	c-13.2,1-24,5.1-24.4,5.3l-2.1,0.8v5.7l0.5,0.9c0.1,0.2,1.7,2.3,5.4,4.5c-0.3,1.1-1.7,6.3-1.2,8c0.6,2,1.4,9.5,1.2,11.5
	s-2,9.9,0,13.1s-1.5,19.4-3.5,22.8c-2,3.4-5.5,6.7-6.5,7.9v2.8c0,0,35,14.7,80,0v-2.6C-59,423.8-65.5,415.8-65.7,413.7z
	 M-110.1,402.6c-1.7-0.9-2.4-2.9-1.5-4.6l1.6-3.1l3.1,1.6c1.7,0.9,2.4,2.9,1.5,4.6l-1.6,3.1L-110.1,402.6z M-98.5,387.5l-1.6,3.1
	l-3.1-1.6c-1.7-0.9-2.4-2.9-1.5-4.6l1.6-3.1l3.1,1.6C-98.4,383.7-97.7,385.8-98.5,387.5z M-96,378l3.3-1.1l1.1,3.3
	c0.6,1.8-0.4,3.8-2.2,4.3l-3.3,1.1l-1.1-3.3C-98.8,380.5-97.8,378.6-96,378z M-103.5,389.7c1.7,0.9,2.4,2.9,1.5,4.6l-1.6,3.1
	l-3.1-1.6c-1.7-0.9-2.4-2.9-1.5-4.6l1.6-3.1L-103.5,389.7z M-98.6,404.6c-0.9,1.7-2.9,2.4-4.6,1.5l-3.1-1.6l1.6-3.1
	c0.9-1.7,2.9-2.4,4.6-1.5l3.1,1.6L-98.6,404.6z M-95.1,397.8c-0.9,1.7-2.9,2.4-4.6,1.5l-3.1-1.6l1.6-3.1c0.9-1.7,2.9-2.4,4.6-1.5
	l3.1,1.6L-95.1,397.8z M-91.6,391c-0.9,1.7-2.9,2.4-4.6,1.5l-3.1-1.6l1.6-3.1c0.9-1.7,2.9-2.4,4.6-1.5l3.1,1.6L-91.6,391z
	 M-102,358.9c-3.3,0-6.5-0.1-9.5-0.4c-6.9-0.6-11.4-2.4-13.9-3.8c-0.7-0.4-1.3-0.8-1.8-1.1c0,0,5.2-3.2,8.8-4.6
	c3.6-1.4,11.9-3.6,16.1-2.4c4.2,1.2,8.5,0.2,12.5,1.6c4,1.4,14.1,3.4,16,7.2C-79.5,357.5-90.5,358.9-102,358.9z"/>
</svg>
