<?xml version="1.0" encoding="utf-8"?>
<!-- Generator: Adobe Illustrator 19.1.0, SVG Export Plug-In . SVG Version: 6.00 Build 0)  -->
<svg version="1.1" id="Layer_1" xmlns="http://www.w3.org/2000/svg" xmlns:xlink="http://www.w3.org/1999/xlink" x="0px" y="0px"
	 viewBox="-147.4 339 96.9 98" style="enable-background:new -147.4 339 96.9 98;" xml:space="preserve">
<title>Artboard 28</title>
<path d="M-76.3,381.9c6,1.4,12.1-2.3,13.5-8.3c0.7-2.9,0.2-5.9-1.4-8.5L-77,344.3c-3.3-5.3-10.2-6.9-15.4-3.7
	c-3.8,2.4-5.9,6.8-5.2,11.2l-14.1,8.7c-5.1-3.5-12.1-2.3-15.6,2.8c-2.5,3.6-2.7,8.4-0.4,12.2l12.8,20.8l0,0
	c3.3,5.3,10.2,6.9,15.4,3.7c3.8-2.4,5.9-6.8,5.2-11.2l14.1-8.7C-79,380.9-77.7,381.5-76.3,381.9z M-104.1,392.6
	c-1.1,0.7-2.6,0.3-3.3-0.8l0,0l-12.8-20.8c-0.7-1.2-0.3-2.6,0.9-3.3c1.1-0.6,2.4-0.3,3.1,0.7l0,0l0,0l12.9,20.9
	C-102.7,390.4-103,391.9-104.1,392.6z M-87.8,348.2c1.1-0.7,2.6-0.3,3.3,0.8l12.8,20.8c0.7,1.1,0.4,2.6-0.8,3.3
	c-0.5,0.3-1.2,0.4-1.8,0.3c-0.6-0.1-1.1-0.5-1.4-1l0,0l0,0l-12.9-20.8C-89.3,350.3-88.9,348.9-87.8,348.2z M-51.4,423.9
	c1.8,3.9,0.8,8.5-2.6,11.1c-0.3,0.2-0.5,0.4-0.8,0.6c-4.3,2.6-9.9,1.3-12.5-3c0,0,0,0,0,0c-0.3-0.4-0.5-0.8-0.7-1.3
	c-1.5-3.9-3.4-7.7-5.5-11.3l-15.8-27.9l0.8-0.5l0,0l9.5-5.8l0,0l0.8-0.6l17.5,26c2.2,3.7,4.7,7.1,7.6,10.2
	C-52.5,422.2-51.9,423.1-51.4,423.9z M-135,397.2l-9.6-0.2l0,0c-1.6,0-2.9-1.4-2.9-3c0,0,0,0,0,0v-1.5c0-1.6,1.4-2.9,3-2.9l9.6,0.2
	c1.6,0,2.9,1.4,2.9,3c0,0,0,0,0,0v1.5C-132,395.9-133.4,397.2-135,397.2C-135,397.2-135,397.2-135,397.2z M-138,376.2l8.4,4.7
	c1.4,0.8,1.9,2.6,1.1,4c0,0,0,0,0,0l-0.7,1.3c-0.8,1.4-2.6,1.9-4,1.1c0,0,0,0,0,0l-8.4-4.7c-1.4-0.8-1.9-2.6-1.1-4c0,0,0,0,0,0
	l0.7-1.3C-141.2,375.9-139.4,375.4-138,376.2C-138,376.2-138,376.2-138,376.2L-138,376.2z M-140.2,411c-1.1,0-2.1-0.6-2.6-1.6
	l-0.7-1.4c-0.7-1.4-0.1-3.2,1.3-3.9l8.6-4.3c1.4-0.7,3.2-0.1,3.9,1.3c0,0,0,0,0,0l0.7,1.3c0.7,1.4,0.1,3.2-1.3,3.9l-8.6,4.3
	C-139.3,410.9-139.7,411-140.2,411z M-85.3,423v7.1c0,2.1-1.7,3.8-3.8,3.8c0,0,0,0,0,0h-48.2c-2.1,0-3.8-1.7-3.8-3.8l0,0v-7.2
	c0-2.1,1.7-3.8,3.8-3.8c0,0,0,0,0,0h6.1c0-4.1,3.3-7.4,7.4-7.4h21.3c4.1,0,7.4,3.3,7.4,7.4h6.1C-87,419.1-85.3,420.8-85.3,423
	L-85.3,423z"/>
</svg>
