<svg xmlns="http://www.w3.org/2000/svg" xmlns:xlink="http://www.w3.org/1999/xlink" xml:space="preserve" version="1.1" style="shape-rendering:geometricPrecision;text-rendering:geometricPrecision;image-rendering:optimizeQuality;" viewBox="0 0 2540 3175" x="0px" y="0px" fill-rule="evenodd" clip-rule="evenodd"><defs><style type="text/css">
   
    .fil0 {fill:black}
   
  </style></defs><g><path class="fil0" d="M2363 1270c0,604 -489,1093 -1093,1093 -604,0 -1093,-489 -1093,-1093 0,-604 489,-1093 1093,-1093 604,0 1093,489 1093,1093zm-880 -399l-213 213 -213 -213c-95,-95 -281,91 -186,186l213 213 -213 213c-95,95 91,281 186,186l213 -213 213 213c95,95 281,-91 186,-186l-213 -213 213 -213c95,-95 -91,-281 -186,-186z"/></g><text x="0" y="2555" fill="#000000" font-size="5px" font-weight="bold" font-family="'Helvetica Neue', Helvetica, Arial-Unicode, Arial, Sans-serif">Created by Cahayaku</text><text x="0" y="2560" fill="#000000" font-size="5px" font-weight="bold" font-family="'Helvetica Neue', Helvetica, Arial-Unicode, Arial, Sans-serif">from the Noun Project</text></svg>