<?xml version="1.0" encoding="utf-8"?>
<!-- Generator: Adobe Illustrator 19.1.0, SVG Export Plug-In . SVG Version: 6.00 Build 0)  -->
<svg version="1.1" id="Layer_1" xmlns="http://www.w3.org/2000/svg" xmlns:xlink="http://www.w3.org/1999/xlink" x="0px" y="0px"
	 viewBox="-165.9 364.3 61.9 57.4" style="enable-background:new -165.9 364.3 61.9 57.4;" xml:space="preserve">
<g>
	<polygon points="-141.5,406.2 -150.5,406.2 -150.5,397.3 -157.1,397.3 -157.1,406.2 -165.9,406.2 -165.9,412.8 -157,412.8 
		-157,421.7 -150.4,421.7 -150.4,412.7 -141.5,412.7 	"/>
	<path d="M-104.8,386.4c-0.7,2.5-1.9,4.6-4.1,6.1c-1.3,0.9-2.8,1.5-4.2,1.9c-0.9,0.3-1.9,0.5-2.9,0.6c-1.8,0.2-3.7,0.2-5.5-0.1
		c-0.1,0-0.2,0-0.2,0c0,0,0,0,0,0.1c-0.4,0.9-0.7,1.8-0.9,2.8c-0.1,0.8-0.2,1.5-0.3,2.3c-0.2,1.7,2.6,21.6,2.9,21.6h-0.4
		c-1.2-0.1-2.4-0.2-3.6-0.3c0-0.2-0.1-0.4-0.1-0.7c-0.1-1.1-0.6-5.6-0.7-6.7c-0.7-6.1-1.8-12.8-3.9-18.5c-0.1-0.3-0.2-0.6-0.3-0.8
		c-0.7-1.3-1.5-2.5-2.5-3.6c-1-1.1-2-2.1-2.9-3.3c-1.1-1.3-2.5-2.5-3.8-3.7c-2.5-2.4-5.2-4.7-8-6.8c-2.7-2.1-5.6-4.1-8.5-5.9
		c3.8,3.5,8.1,7.2,12.2,11.2c3.7,3.6,9.9,11.5,11.1,13c0.1,0.1,0,0.2-0.1,0.3c-0.3,0-0.6,0.1-0.8,0.1c-0.3,0-0.5,0.1-0.8,0.1h-0.1
		c-1.1,0.1-2.2,0.1-3.3,0.1c-1.8,0-3.6,0-5.5-0.1c0,0,0,0-0.1,0c-5.5-0.4-10.2-2.5-13.9-6.8c-3-3.5-5.1-7.3-6.7-11.3
		c-1.5-3.9-2.5-8-3.1-12.2c-0.1-0.8,0.4-1.3,1.2-1.3c0.5,0,0.9,0,1.4,0.1c3.9,0.3,7.8,0.7,11.7,1.6c0.6,0.1,1.3,0.3,1.9,0.5
		c4.4,1.2,8.9,2.3,13,4.5c2.8,1.5,5.3,3.6,6.9,6.3c1.1,1.8,1.7,3.9,1.7,6c0,1.8,0,4.4-1,5.9c0,0.3,0,0.5,0.2,0.6
		c1.7,1.9,2.5,4.4,3.9,6.6c0.2-0.2,0.2-0.4,0.3-0.7c0.1-0.2,0.1-0.4,0.2-0.5c0.1-0.3,0.2-0.5,0.3-0.7c0.3-0.5,0.6-1.1,0.7-1.8
		c0.1-0.7-0.2-1.4-0.3-2.1c-0.6-4.7-0.1-9.2,1.5-13.7c1-2.9,2.9-5,5.5-6.6c2.5-1.6,5.3-2.5,8.1-3.4c0.8-0.2,1.5-0.4,2.3-0.6
		c0.6-0.2,1.1,0.2,1.2,0.8c0.3,3.2,0.6,6.4,0.9,9.6C-103.9,380-104,383.2-104.8,386.4z"/>
</g>
</svg>
