<?xml version="1.0" encoding="utf-8"?>
<!-- Generator: Adobe Illustrator 19.1.0, SVG Export Plug-In . SVG Version: 6.00 Build 0)  -->
<svg version="1.1" id="Layer_1" xmlns="http://www.w3.org/2000/svg" xmlns:xlink="http://www.w3.org/1999/xlink" x="0px" y="0px"
	 viewBox="-162 357 70 70" style="enable-background:new -162 357 70 70;" xml:space="preserve">
<g>
	<path d="M-103.9,388.7h-2.6c-0.3,0-0.5-0.2-0.6-0.5c-2.7-7.5-9.5-13.1-17.6-14c-0.3,0-0.6-0.3-0.6-0.7v-2.4c0-0.4,0.3-0.7,0.8-0.7
		c3.8,0.5,7.6-2.4,11.4-1c0.5,0.2,1.1-0.2,1.1-0.8v-8.5c0-0.5-0.3-1-0.8-1.2c-4.2-1.5-8.4,2.3-12.5,1.4v-1.7c0-0.9-0.7-1.6-1.6-1.6
		s-1.6,0.7-1.6,1.6v14.9c0,0.4-0.3,0.6-0.6,0.7c-8.5,0.7-15.5,6.4-18.3,14.1c-0.1,0.3-0.4,0.5-0.6,0.5h-2.1c-0.4,0-0.7,0.3-0.7,0.7
		v2.4c0,0.4,0.3,0.7,0.7,0.7h46.3c0.4,0,0.7-0.3,0.7-0.7v-2.4C-103.2,389-103.5,388.7-103.9,388.7z"/>
	<path d="M-92.7,396.2h-68.6c-0.4,0-0.7,0.3-0.7,0.7v29.4c0,0.4,0.3,0.7,0.7,0.7h25.4c0.2,0,0.4-0.2,0.4-0.4v-23.8
		c0-0.2,0.2-0.4,0.4-0.4h16.2c0.2,0,0.4,0.2,0.4,0.4v23.8c0,0.2,0.2,0.4,0.4,0.4h25.4c0.4,0,0.7-0.3,0.7-0.7v-29.4
		C-92,396.5-92.3,396.2-92.7,396.2z"/>
</g>
</svg>
